<svg xmlns="http://www.w3.org/2000/svg" xmlns:xlink="http://www.w3.org/1999/xlink" viewBox="0 0 471.54 345.89"><defs><style>.cls-1{fill:none;}.cls-2{isolation:isolate;}.cls-3{clip-path:url(#clip-path);}.cls-4{fill:#f1f1f4;}.cls-5{fill:#e0f3ff;}.cls-6{fill:url(#Áåçûìÿííûé_ãðàäèåíò_29);}.cls-7{fill:url(#Áåçûìÿííûé_ãðàäèåíò_28);}.cls-8{fill:#e5e2ff;}.cls-9{fill:url(#Áåçûìÿííûé_ãðàäèåíò_28-2);}.cls-10,.cls-11{opacity:0.62;}.cls-10,.cls-11,.cls-117,.cls-17,.cls-18,.cls-19,.cls-22,.cls-24,.cls-30,.cls-33,.cls-35,.cls-38,.cls-39,.cls-40,.cls-41,.cls-42,.cls-43,.cls-44,.cls-45,.cls-46,.cls-47,.cls-48,.cls-49,.cls-50,.cls-51,.cls-52,.cls-53,.cls-54,.cls-56,.cls-57,.cls-58,.cls-59,.cls-60,.cls-61,.cls-65,.cls-76,.cls-79,.cls-80,.cls-81,.cls-85,.cls-86,.cls-93,.cls-94,.cls-95,.cls-96,.cls-97,.cls-98{mix-blend-mode:multiply;}.cls-10{fill:url(#Áåçûìÿííûé_ãðàäèåíò_27);}.cls-11{fill:url(#Áåçûìÿííûé_ãðàäèåíò_94);}.cls-117,.cls-12,.cls-22,.cls-24,.cls-39,.cls-40,.cls-41,.cls-42,.cls-43,.cls-44,.cls-45,.cls-46,.cls-47,.cls-49,.cls-51,.cls-52,.cls-53,.cls-54,.cls-56,.cls-58,.cls-59,.cls-60,.cls-61,.cls-81{opacity:0.5;}.cls-12{mix-blend-mode:screen;fill:url(#Áåçûìÿííûé_ãðàäèåíò_95);}.cls-13{fill:#fff;}.cls-14{fill:url(#Áåçûìÿííûé_ãðàäèåíò_74);}.cls-15{fill:url(#Áåçûìÿííûé_ãðàäèåíò_26);}.cls-16{fill:url(#Áåçûìÿííûé_ãðàäèåíò_26-2);}.cls-17,.cls-18,.cls-19,.cls-48{opacity:0.76;}.cls-17{fill:url(#Áåçûìÿííûé_ãðàäèåíò_70);}.cls-18{fill:url(#Áåçûìÿííûé_ãðàäèåíò_70-2);}.cls-19{fill:url(#Áåçûìÿííûé_ãðàäèåíò_70-3);}.cls-20{fill:#fe9083;}.cls-21{fill:url(#Áåçûìÿííûé_ãðàäèåíò_354);}.cls-22{fill:url(#Áåçûìÿííûé_ãðàäèåíò_70-4);}.cls-23{fill:url(#Áåçûìÿííûé_ãðàäèåíò_26-3);}.cls-24{fill:url(#Áåçûìÿííûé_ãðàäèåíò_70-5);}.cls-25{fill:url(#Áåçûìÿííûé_ãðàäèåíò_178);}.cls-26{fill:url(#Áåçûìÿííûé_ãðàäèåíò_55);}.cls-27{fill:#cb4d7a;}.cls-28{fill:#ee8183;}.cls-29{fill:url(#Áåçûìÿííûé_ãðàäèåíò_71);}.cls-30,.cls-35,.cls-65,.cls-76,.cls-79,.cls-80,.cls-91,.cls-93{opacity:0.6;}.cls-30{fill:url(#Áåçûìÿííûé_ãðàäèåíò_48);}.cls-31{fill:url(#Áåçûìÿííûé_ãðàäèåíò_71-2);}.cls-32{fill:#e28183;}.cls-33,.cls-38{opacity:0.91;}.cls-33{fill:url(#Áåçûìÿííûé_ãðàäèåíò_73);}.cls-34{fill:url(#Áåçûìÿííûé_ãðàäèåíò_71-3);}.cls-35{fill:url(#Áåçûìÿííûé_ãðàäèåíò_48-2);}.cls-36{fill:url(#Áåçûìÿííûé_ãðàäèåíò_64);}.cls-37{fill:url(#Áåçûìÿííûé_ãðàäèåíò_64-2);}.cls-38{fill:url(#Áåçûìÿííûé_ãðàäèåíò_73-2);}.cls-39{fill:url(#Áåçûìÿííûé_ãðàäèåíò_70-6);}.cls-40{fill:url(#Áåçûìÿííûé_ãðàäèåíò_70-7);}.cls-41{fill:url(#Áåçûìÿííûé_ãðàäèåíò_4);}.cls-42{fill:url(#Áåçûìÿííûé_ãðàäèåíò_4-2);}.cls-43{fill:url(#Áåçûìÿííûé_ãðàäèåíò_4-3);}.cls-44{fill:url(#Áåçûìÿííûé_ãðàäèåíò_4-4);}.cls-45{fill:url(#Áåçûìÿííûé_ãðàäèåíò_4-5);}.cls-46{fill:url(#Áåçûìÿííûé_ãðàäèåíò_4-6);}.cls-47{fill:url(#Áåçûìÿííûé_ãðàäèåíò_4-7);}.cls-48{fill:url(#Áåçûìÿííûé_ãðàäèåíò_70-8);}.cls-49{fill:url(#Áåçûìÿííûé_ãðàäèåíò_70-9);}.cls-50,.cls-57,.cls-94,.cls-95,.cls-96,.cls-97{opacity:0.3;}.cls-50{fill:url(#Áåçûìÿííûé_ãðàäèåíò_70-10);}.cls-51{fill:url(#Áåçûìÿííûé_ãðàäèåíò_4-8);}.cls-52{fill:url(#Áåçûìÿííûé_ãðàäèåíò_70-11);}.cls-53{fill:url(#Áåçûìÿííûé_ãðàäèåíò_4-9);}.cls-54{fill:url(#Áåçûìÿííûé_ãðàäèåíò_4-10);}.cls-55{fill:url(#Áåçûìÿííûé_ãðàäèåíò_25);}.cls-56{fill:url(#Áåçûìÿííûé_ãðàäèåíò_70-12);}.cls-57{fill:url(#Áåçûìÿííûé_ãðàäèåíò_70-13);}.cls-58{fill:url(#Áåçûìÿííûé_ãðàäèåíò_70-14);}.cls-59{fill:url(#Áåçûìÿííûé_ãðàäèåíò_70-15);}.cls-60{fill:url(#Áåçûìÿííûé_ãðàäèåíò_70-16);}.cls-61{fill:#7a4ac0;}.cls-62{fill:url(#Áåçûìÿííûé_ãðàäèåíò_71-4);}.cls-63{fill:url(#Áåçûìÿííûé_ãðàäèåíò_71-5);}.cls-64{fill:url(#Áåçûìÿííûé_ãðàäèåíò_387);}.cls-65{fill:url(#Áåçûìÿííûé_ãðàäèåíò_48-3);}.cls-66{fill:#38368e;}.cls-67{fill:url(#Áåçûìÿííûé_ãðàäèåíò_59);}.cls-68{fill:url(#Áåçûìÿííûé_ãðàäèåíò_184);}.cls-69{fill:#ffebed;}.cls-70{fill:#7f9ec9;}.cls-71{fill:#131163;}.cls-72{fill:#c6659c;}.cls-73{fill:#cb5f7d;}.cls-74{fill:#9f4a8b;}.cls-75{fill:#ffbcaf;}.cls-76{fill:url(#Áåçûìÿííûé_ãðàäèåíò_48-4);}.cls-77{fill:url(#Áåçûìÿííûé_ãðàäèåíò_292);}.cls-78{fill:#d2726c;}.cls-79{fill:url(#Áåçûìÿííûé_ãðàäèåíò_35);}.cls-80{fill:url(#Áåçûìÿííûé_ãðàäèåíò_52);}.cls-81{fill:url(#Áåçûìÿííûé_ãðàäèåíò_397);}.cls-82{fill:url(#Áåçûìÿííûé_ãðàäèåíò_141);}.cls-83{fill:url(#Áåçûìÿííûé_ãðàäèåíò_141-2);}.cls-84{fill:url(#Áåçûìÿííûé_ãðàäèåíò_141-3);}.cls-85,.cls-86{opacity:0.8;}.cls-85{fill:url(#Áåçûìÿííûé_ãðàäèåíò_285);}.cls-86{fill:url(#Áåçûìÿííûé_ãðàäèåíò_285-2);}.cls-87{fill:#34c7ff;}.cls-88{fill:url(#Áåçûìÿííûé_ãðàäèåíò_141-4);}.cls-89{fill:url(#Áåçûìÿííûé_ãðàäèåíò_141-5);}.cls-90{fill:url(#Áåçûìÿííûé_ãðàäèåíò_141-6);}.cls-91{fill:#36d1f7;}.cls-92{fill:#744ca2;}.cls-93{fill:url(#Áåçûìÿííûé_ãðàäèåíò_89);}.cls-94{fill:url(#Áåçûìÿííûé_ãðàäèåíò_85);}.cls-95{fill:url(#Áåçûìÿííûé_ãðàäèåíò_85-2);}.cls-96{fill:url(#Áåçûìÿííûé_ãðàäèåíò_85-3);}.cls-97{fill:url(#Áåçûìÿííûé_ãðàäèåíò_85-4);}.cls-98{fill:#d1d4fb;}.cls-118,.cls-99{mix-blend-mode:soft-light;}.cls-100{fill:#e0ffff;}.cls-101{fill:url(#Áåçûìÿííûé_ãðàäèåíò_65);}.cls-102{fill:url(#Áåçûìÿííûé_ãðàäèåíò_14);}.cls-103{opacity:0.81;fill:url(#Áåçûìÿííûé_ãðàäèåíò_115);}.cls-104{fill:#473da2;}.cls-105{fill:url(#Áåçûìÿííûé_ãðàäèåíò_302);}.cls-106{fill:url(#Áåçûìÿííûé_ãðàäèåíò_302-2);}.cls-107{fill:url(#Áåçûìÿííûé_ãðàäèåíò_322);}.cls-108{fill:url(#Áåçûìÿííûé_ãðàäèåíò_322-2);}.cls-109{fill:url(#Áåçûìÿííûé_ãðàäèåíò_25-2);}.cls-110{fill:url(#Áåçûìÿííûé_ãðàäèåíò_25-3);}.cls-111,.cls-113{opacity:0.73;}.cls-111{fill:url(#Áåçûìÿííûé_ãðàäèåíò_97);}.cls-112{fill:#953da2;}.cls-113{fill:url(#Áåçûìÿííûé_ãðàäèåíò_97-2);}.cls-114,.cls-115,.cls-116,.cls-117,.cls-118,.cls-122,.cls-123,.cls-124,.cls-125{fill-rule:evenodd;}.cls-114{fill:url(#Áåçûìÿííûé_ãðàäèåíò_206);}.cls-115{fill:url(#Áåçûìÿííûé_ãðàäèåíò_206-2);}.cls-116{fill:url(#Áåçûìÿííûé_ãðàäèåíò_107);}.cls-117{fill:#601734;}.cls-118{fill:#b3d9ff;}.cls-119{fill:#ff1d9c;}.cls-120{fill:#6877ff;}.cls-121{fill:#4f31e0;}.cls-122{fill:url(#Áåçûìÿííûé_ãðàäèåíò_107-2);}.cls-123{fill:url(#Áåçûìÿííûé_ãðàäèåíò_206-3);}.cls-124{fill:url(#Áåçûìÿííûé_ãðàäèåíò_107-3);}.cls-125{fill:url(#Áåçûìÿííûé_ãðàäèåíò_206-4);}</style><clipPath id="clip-path" transform="translate(-78.34 -35.76)"><rect class="cls-1" width="600" height="400"/></clipPath><linearGradient id="Áåçûìÿííûé_ãðàäèåíò_29" x1="135.58" y1="275.8" x2="135.58" y2="204.61" gradientTransform="matrix(0.91, -0.42, 0.42, 0.91, -71.45, 51.4)" gradientUnits="userSpaceOnUse"><stop offset="0" stop-color="#dbccff"/><stop offset="1" stop-color="#d1bbff"/></linearGradient><linearGradient id="Áåçûìÿííûé_ãðàäèåíò_28" x1="135.57" y1="278.57" x2="135.57" y2="207.38" gradientTransform="matrix(0.91, -0.42, 0.42, 0.91, -71.45, 51.4)" gradientUnits="userSpaceOnUse"><stop offset="0" stop-color="#b5a6e7"/><stop offset="1" stop-color="#7760bf"/></linearGradient><linearGradient id="Áåçûìÿííûé_ãðàäèåíò_28-2" x1="135.57" y1="260.87" x2="135.57" y2="230.87" xlink:href="#Áåçûìÿííûé_ãðàäèåíò_28"/><linearGradient id="Áåçûìÿííûé_ãðàäèåíò_27" x1="131.32" y1="231.47" x2="139.83" y2="231.47" gradientTransform="matrix(0.91, -0.42, 0.42, 0.91, -71.45, 51.4)" gradientUnits="userSpaceOnUse"><stop offset="0" stop-color="#8b8be0"/><stop offset="1" stop-color="#a177b7"/></linearGradient><linearGradient id="Áåçûìÿííûé_ãðàäèåíò_94" x1="135.57" y1="233.44" x2="135.57" y2="228.29" gradientTransform="matrix(0.91, -0.42, 0.42, 0.91, -71.45, 51.4)" gradientUnits="userSpaceOnUse"><stop offset="0" stop-color="#fff"/><stop offset="1" stop-color="#a177b7"/></linearGradient><linearGradient id="Áåçûìÿííûé_ãðàäèåíò_95" x1="140.08" y1="263.94" x2="140.08" y2="230.86" gradientTransform="matrix(0.91, -0.42, 0.42, 0.91, -71.45, 51.4)" gradientUnits="userSpaceOnUse"><stop offset="0"/><stop offset="1" stop-color="#fff"/></linearGradient><linearGradient id="Áåçûìÿííûé_ãðàäèåíò_74" x1="274.22" y1="381.61" x2="274.22" y2="292.4" gradientUnits="userSpaceOnUse"><stop offset="0" stop-color="#6456c0"/><stop offset="1" stop-color="#5f2c95"/></linearGradient><linearGradient id="Áåçûìÿííûé_ãðàäèåíò_26" x1="245.35" y1="350.29" x2="268.75" y2="350.29" gradientUnits="userSpaceOnUse"><stop offset="0" stop-color="#9e8cef"/><stop offset="1" stop-color="#caafee"/></linearGradient><linearGradient id="Áåçûìÿííûé_ãðàäèåíò_26-2" x1="340.67" y1="350.29" x2="364.07" y2="350.29" gradientTransform="matrix(-1, 0, 0, 1, 640.69, 0)" xlink:href="#Áåçûìÿííûé_ãðàäèåíò_26"/><linearGradient id="Áåçûìÿííûé_ãðàäèåíò_70" x1="271.08" y1="381.61" x2="271.08" y2="292.4" gradientUnits="userSpaceOnUse"><stop offset="0" stop-color="#ccf"/><stop offset="1" stop-color="#755cbb"/></linearGradient><linearGradient id="Áåçûìÿííûé_ãðàäèåíò_70-2" x1="203.13" y1="301.25" x2="203.13" y2="276.91" xlink:href="#Áåçûìÿííûé_ãðàäèåíò_70"/><linearGradient id="Áåçûìÿííûé_ãðàäèåíò_70-3" x1="174.95" y1="292.3" x2="174.95" y2="268.46" xlink:href="#Áåçûìÿííûé_ãðàäèåíò_70"/><linearGradient id="Áåçûìÿííûé_ãðàäèåíò_354" x1="277.46" y1="158.06" x2="277.46" y2="122.45" gradientUnits="userSpaceOnUse"><stop offset="0" stop-color="#d5cdf8"/><stop offset="1" stop-color="#f3edfb"/></linearGradient><linearGradient id="Áåçûìÿííûé_ãðàäèåíò_70-4" x1="259.13" y1="140.22" x2="295.8" y2="140.22" xlink:href="#Áåçûìÿííûé_ãðàäèåíò_70"/><linearGradient id="Áåçûìÿííûé_ãðàäèåíò_26-3" x1="266.98" y1="300.34" x2="266.98" y2="120.9" xlink:href="#Áåçûìÿííûé_ãðàäèåíò_26"/><linearGradient id="Áåçûìÿííûé_ãðàäèåíò_70-5" x1="192.51" y1="188.52" x2="236.21" y2="188.52" xlink:href="#Áåçûìÿííûé_ãðàäèåíò_70"/><linearGradient id="Áåçûìÿííûé_ãðàäèåíò_178" x1="191.16" y1="238.78" x2="191.16" y2="154.87" gradientUnits="userSpaceOnUse"><stop offset="0" stop-color="#9e8cef"/><stop offset="1" stop-color="#dac7f3"/></linearGradient><linearGradient id="Áåçûìÿííûé_ãðàäèåíò_55" x1="335.45" y1="214.59" x2="391.76" y2="214.59" gradientUnits="userSpaceOnUse"><stop offset="0" stop-color="#a999f1"/><stop offset="1" stop-color="#dac7f3"/></linearGradient><linearGradient id="Áåçûìÿííûé_ãðàäèåíò_71" x1="172.85" y1="143.42" x2="172.85" y2="121.3" gradientUnits="userSpaceOnUse"><stop offset="0.02" stop-color="#ffc2a9"/><stop offset="1" stop-color="#ff9595"/></linearGradient><linearGradient id="Áåçûìÿííûé_ãðàäèåíò_48" x1="186.78" y1="142.9" x2="186.78" y2="106.28" gradientUnits="userSpaceOnUse"><stop offset="0" stop-color="#ffeadb"/><stop offset="0.99" stop-color="#c27cb6"/></linearGradient><linearGradient id="Áåçûìÿííûé_ãðàäèåíò_71-2" x1="185.59" y1="167.82" x2="185.59" y2="111.36" xlink:href="#Áåçûìÿííûé_ãðàäèåíò_71"/><linearGradient id="Áåçûìÿííûé_ãðàäèåíò_73" x1="175.49" y1="159.01" x2="193.24" y2="159.01" gradientUnits="userSpaceOnUse"><stop offset="0.02" stop-color="#d1a1d6"/><stop offset="0.99" stop-color="#bd89c4"/></linearGradient><linearGradient id="Áåçûìÿííûé_ãðàäèåíò_71-3" x1="392.92" y1="202.21" x2="392.92" y2="126.71" xlink:href="#Áåçûìÿííûé_ãðàäèåíò_71"/><linearGradient id="Áåçûìÿííûé_ãðàäèåíò_48-2" x1="401.84" y1="178.02" x2="401.84" y2="140.51" xlink:href="#Áåçûìÿííûé_ãðàäèåíò_48"/><linearGradient id="Áåçûìÿííûé_ãðàäèåíò_64" x1="409.24" y1="165.07" x2="409.24" y2="148.25" gradientUnits="userSpaceOnUse"><stop offset="0" stop-color="#ffb0b0"/><stop offset="0.98" stop-color="#ffc2a9"/></linearGradient><linearGradient id="Áåçûìÿííûé_ãðàäèåíò_64-2" x1="418.99" y1="167.66" x2="418.99" y2="158.44" xlink:href="#Áåçûìÿííûé_ãðàäèåíò_64"/><linearGradient id="Áåçûìÿííûé_ãðàäèåíò_73-2" x1="379.55" y1="186.04" x2="396.7" y2="186.04" xlink:href="#Áåçûìÿííûé_ãðàäèåíò_73"/><linearGradient id="Áåçûìÿííûé_ãðàäèåíò_70-6" x1="355.69" y1="245.23" x2="355.69" y2="160.72" xlink:href="#Áåçûìÿííûé_ãðàäèåíò_70"/><linearGradient id="Áåçûìÿííûé_ãðàäèåíò_70-7" x1="169.61" y1="228.2" x2="310.96" y2="228.2" xlink:href="#Áåçûìÿííûé_ãðàäèåíò_70"/><linearGradient id="Áåçûìÿííûé_ãðàäèåíò_4" x1="294.23" y1="204.55" x2="321.25" y2="204.55" gradientUnits="userSpaceOnUse"><stop offset="0" stop-color="#ccedff"/><stop offset="1" stop-color="#755cbb"/></linearGradient><linearGradient id="Áåçûìÿííûé_ãðàäèåíò_4-2" x1="269.72" y1="251.96" x2="309.43" y2="251.96" xlink:href="#Áåçûìÿííûé_ãðàäèåíò_4"/><linearGradient id="Áåçûìÿííûé_ãðàäèåíò_4-3" x1="271.56" y1="269.92" x2="313.98" y2="269.92" xlink:href="#Áåçûìÿííûé_ãðàäèåíò_4"/><linearGradient id="Áåçûìÿííûé_ãðàäèåíò_4-4" x1="235.05" y1="225.47" x2="235.05" y2="177.86" xlink:href="#Áåçûìÿííûé_ãðàäèåíò_4"/><linearGradient id="Áåçûìÿííûé_ãðàäèåíò_4-5" x1="238.89" y1="229.47" x2="238.89" y2="193.38" xlink:href="#Áåçûìÿííûé_ãðàäèåíò_4"/><linearGradient id="Áåçûìÿííûé_ãðàäèåíò_4-6" x1="181.85" y1="183.33" x2="181.85" y2="156.07" xlink:href="#Áåçûìÿííûé_ãðàäèåíò_4"/><linearGradient id="Áåçûìÿííûé_ãðàäèåíò_4-7" x1="203.91" y1="159.32" x2="214.9" y2="159.32" xlink:href="#Áåçûìÿííûé_ãðàäèåíò_4"/><linearGradient id="Áåçûìÿííûé_ãðàäèåíò_70-8" x1="323.37" y1="225.47" x2="323.37" y2="174.93" xlink:href="#Áåçûìÿííûé_ãðàäèåíò_70"/><linearGradient id="Áåçûìÿííûé_ãðàäèåíò_70-9" x1="380.19" y1="214.6" x2="380.19" y2="188.19" xlink:href="#Áåçûìÿííûé_ãðàäèåíò_70"/><linearGradient id="Áåçûìÿííûé_ãðàäèåíò_70-10" x1="350.24" y1="213.42" x2="350.24" y2="193.23" xlink:href="#Áåçûìÿííûé_ãðàäèåíò_70"/><linearGradient id="Áåçûìÿííûé_ãðàäèåíò_4-8" x1="176.14" y1="185.07" x2="176.14" y2="177.58" xlink:href="#Áåçûìÿííûé_ãðàäèåíò_4"/><linearGradient id="Áåçûìÿííûé_ãðàäèåíò_70-11" x1="196.17" y1="207.93" x2="196.17" y2="166.96" xlink:href="#Áåçûìÿííûé_ãðàäèåíò_70"/><linearGradient id="Áåçûìÿííûé_ãðàäèåíò_4-9" x1="301.59" y1="179.09" x2="301.59" y2="148.25" xlink:href="#Áåçûìÿííûé_ãðàäèåíò_4"/><linearGradient id="Áåçûìÿííûé_ãðàäèåíò_4-10" x1="261.19" y1="174.92" x2="261.19" y2="132.36" xlink:href="#Áåçûìÿííûé_ãðàäèåíò_4"/><linearGradient id="Áåçûìÿííûé_ãðàäèåíò_25" x1="246.82" y1="182.71" x2="317.91" y2="182.71" gradientUnits="userSpaceOnUse"><stop offset="0" stop-color="#8642a0"/><stop offset="1" stop-color="#6456c0"/></linearGradient><linearGradient id="Áåçûìÿííûé_ãðàäèåíò_70-12" x1="252.95" y1="141.69" x2="299.21" y2="141.69" xlink:href="#Áåçûìÿííûé_ãðàäèåíò_70"/><linearGradient id="Áåçûìÿííûé_ãðàäèåíò_70-13" x1="371.87" y1="211.59" x2="371.87" y2="184.81" xlink:href="#Áåçûìÿííûé_ãðàäèåíò_70"/><linearGradient id="Áåçûìÿííûé_ãðàäèåíò_70-14" x1="334.03" y1="241.79" x2="334.03" y2="160.72" xlink:href="#Áåçûìÿííûé_ãðàäèåíò_70"/><linearGradient id="Áåçûìÿííûé_ãðàäèåíò_70-15" x1="246.87" y1="279.87" x2="246.87" y2="256.63" xlink:href="#Áåçûìÿííûé_ãðàäèåíò_70"/><linearGradient id="Áåçûìÿííûé_ãðàäèåíò_70-16" x1="292.02" y1="273.48" x2="292.02" y2="262.2" xlink:href="#Áåçûìÿííûé_ãðàäèåíò_70"/><linearGradient id="Áåçûìÿííûé_ãðàäèåíò_71-4" x1="291.52" y1="128.42" x2="291.52" y2="51.21" xlink:href="#Áåçûìÿííûé_ãðàäèåíò_71"/><linearGradient id="Áåçûìÿííûé_ãðàäèåíò_71-5" x1="262.74" y1="97.26" x2="262.74" y2="74.5" xlink:href="#Áåçûìÿííûé_ãðàäèåíò_71"/><linearGradient id="Áåçûìÿííûé_ãðàäèåíò_387" x1="302.25" y1="105.87" x2="303.21" y2="100.9" gradientUnits="userSpaceOnUse"><stop offset="0" stop-color="#e1616a"/><stop offset="1" stop-color="#ff8883"/></linearGradient><linearGradient id="Áåçûìÿííûé_ãðàäèåíò_48-3" x1="293.64" y1="102.07" x2="293.64" y2="52.33" xlink:href="#Áåçûìÿííûé_ãðàäèåíò_48"/><linearGradient id="Áåçûìÿííûé_ãðàäèåíò_59" x1="291.21" y1="81.7" x2="291.21" y2="71.85" gradientUnits="userSpaceOnUse"><stop offset="0" stop-color="#cf6074"/><stop offset="1" stop-color="#f37270"/></linearGradient><linearGradient id="Áåçûìÿííûé_ãðàäèåíò_184" x1="310.86" y1="84.83" x2="310.86" y2="76.25" gradientUnits="userSpaceOnUse"><stop offset="0" stop-color="#cf6074"/><stop offset="1" stop-color="#ff817f"/></linearGradient><linearGradient id="Áåçûìÿííûé_ãðàäèåíò_48-4" x1="311.67" y1="89.82" x2="311.67" y2="70.52" xlink:href="#Áåçûìÿííûé_ãðàäèåíò_48"/><linearGradient id="Áåçûìÿííûé_ãðàäèåíò_292" x1="292.56" y1="129.39" x2="292.56" y2="35.76" gradientUnits="userSpaceOnUse"><stop offset="0" stop-color="#2e33a0"/><stop offset="1" stop-color="#0665a5"/></linearGradient><linearGradient id="Áåçûìÿííûé_ãðàäèåíò_35" x1="317.15" y1="70.43" x2="317.15" y2="48.83" gradientUnits="userSpaceOnUse"><stop offset="0" stop-color="#ffeadb"/><stop offset="0.99" stop-color="#8860c7"/></linearGradient><linearGradient id="Áåçûìÿííûé_ãðàäèåíò_52" x1="287.71" y1="129.39" x2="287.71" y2="35.76" gradientUnits="userSpaceOnUse"><stop offset="0" stop-color="#ccc2db"/><stop offset="0.99" stop-color="#8860c7"/></linearGradient><linearGradient id="Áåçûìÿííûé_ãðàäèåíò_397" x1="293.99" y1="129.37" x2="293.99" y2="125.34" gradientUnits="userSpaceOnUse"><stop offset="0" stop-color="#776d7e"/><stop offset="1" stop-color="#9d68c2"/></linearGradient><linearGradient id="Áåçûìÿííûé_ãðàäèåíò_141" x1="305.8" y1="42.48" x2="305.8" y2="39.49" gradientUnits="userSpaceOnUse"><stop offset="0" stop-color="#1f77d1"/><stop offset="1" stop-color="#0686c9"/></linearGradient><linearGradient id="Áåçûìÿííûé_ãðàäèåíò_141-2" x1="286.76" y1="52.32" x2="286.76" y2="43.48" xlink:href="#Áåçûìÿííûé_ãðàäèåíò_141"/><linearGradient id="Áåçûìÿííûé_ãðàäèåíò_141-3" x1="318.78" y1="56.8" x2="318.78" y2="48.83" xlink:href="#Áåçûìÿííûé_ãðàäèåíò_141"/><linearGradient id="Áåçûìÿííûé_ãðàäèåíò_285" x1="266.05" y1="91.87" x2="255.86" y2="79.38" gradientUnits="userSpaceOnUse"><stop offset="0" stop-color="#ffeadb"/><stop offset="0.99" stop-color="#b060f4"/></linearGradient><linearGradient id="Áåçûìÿííûé_ãðàäèåíò_285-2" x1="267.12" y1="90.26" x2="262.1" y2="84.11" xlink:href="#Áåçûìÿííûé_ãðàäèåíò_285"/><linearGradient id="Áåçûìÿííûé_ãðàäèåíò_141-4" x1="286.17" y1="53.11" x2="303.43" y2="53.11" xlink:href="#Áåçûìÿííûé_ãðàäèåíò_141"/><linearGradient id="Áåçûìÿííûé_ãðàäèåíò_141-5" x1="310.52" y1="104.75" x2="315.76" y2="104.75" xlink:href="#Áåçûìÿííûé_ãðàäèåíò_141"/><linearGradient id="Áåçûìÿííûé_ãðàäèåíò_141-6" x1="304.05" y1="100.85" x2="309.7" y2="100.85" xlink:href="#Áåçûìÿííûé_ãðàäèåíò_141"/><linearGradient id="Áåçûìÿííûé_ãðàäèåíò_89" x1="372.68" y1="134.24" x2="549.73" y2="134.24" gradientUnits="userSpaceOnUse"><stop offset="0" stop-color="#9d68c2"/><stop offset="1" stop-color="#aec2ff"/></linearGradient><linearGradient id="Áåçûìÿííûé_ãðàäèåíò_85" x1="330.36" y1="165.35" x2="330.36" y2="111.95" gradientUnits="userSpaceOnUse"><stop offset="0" stop-color="#ccedff"/><stop offset="1" stop-color="#9d68c2"/></linearGradient><linearGradient id="Áåçûìÿííûé_ãðàäèåíò_85-2" x1="421.41" y1="139.32" x2="421.41" y2="115.8" xlink:href="#Áåçûìÿííûé_ãðàäèåíò_85"/><linearGradient id="Áåçûìÿííûé_ãðàäèåíò_85-3" x1="449.17" y1="139.32" x2="449.17" y2="115.8" xlink:href="#Áåçûìÿííûé_ãðàäèåíò_85"/><linearGradient id="Áåçûìÿííûé_ãðàäèåíò_85-4" x1="393.2" y1="139.32" x2="393.2" y2="115.8" xlink:href="#Áåçûìÿííûé_ãðàäèåíò_85"/><linearGradient id="Áåçûìÿííûé_ãðàäèåíò_65" x1="119.33" y1="80.23" x2="119.33" y2="55.61" gradientUnits="userSpaceOnUse"><stop offset="0" stop-color="#d93de3"/><stop offset="1" stop-color="#ff6dba"/></linearGradient><linearGradient id="Áåçûìÿííûé_ãðàäèåíò_14" x1="134.38" y1="80.23" x2="134.38" y2="55.61" gradientUnits="userSpaceOnUse"><stop offset="0" stop-color="#a242ea"/><stop offset="1" stop-color="#fe117e"/></linearGradient><linearGradient id="Áåçûìÿííûé_ãðàäèåíò_115" x1="193.4" y1="375.37" x2="206.71" y2="269.36" gradientUnits="userSpaceOnUse"><stop offset="0" stop-color="#067eff"/><stop offset="1" stop-color="#3e37a0"/></linearGradient><linearGradient id="Áåçûìÿííûé_ãðàäèåíò_302" x1="504.25" y1="113.31" x2="504.25" y2="104.37" gradientUnits="userSpaceOnUse"><stop offset="0" stop-color="#459fff"/><stop offset="1" stop-color="#a96dff"/></linearGradient><linearGradient id="Áåçûìÿííûé_ãðàäèåíò_302-2" x1="84.26" y1="218.04" x2="84.26" y2="206.92" xlink:href="#Áåçûìÿííûé_ãðàäèåíò_302"/><linearGradient id="Áåçûìÿííûé_ãðàäèåíò_322" x1="439.04" y1="77.55" x2="439.04" y2="68.61" gradientUnits="userSpaceOnUse"><stop offset="0" stop-color="#b31a8f"/><stop offset="1" stop-color="#fe117e"/></linearGradient><linearGradient id="Áåçûìÿííûé_ãðàäèåíò_322-2" x1="150.86" y1="106.97" x2="150.86" y2="100.65" xlink:href="#Áåçûìÿííûé_ãðàäèåíò_322"/><linearGradient id="Áåçûìÿííûé_ãðàäèåíò_25-2" x1="362.52" y1="246.41" x2="362.52" y2="240.09" xlink:href="#Áåçûìÿííûé_ãðàäèåíò_25"/><linearGradient id="Áåçûìÿííûé_ãðàäèåíò_25-3" x1="34" y1="277.58" x2="34" y2="271.93" xlink:href="#Áåçûìÿííûé_ãðàäèåíò_25"/><linearGradient id="Áåçûìÿííûé_ãðàäèåíò_97" x1="136.04" y1="282.77" x2="136.04" y2="236.11" gradientUnits="userSpaceOnUse"><stop offset="0" stop-color="#d906e3"/><stop offset="1" stop-color="#ff6df9"/></linearGradient><linearGradient id="Áåçûìÿííûé_ãðàäèåíò_97-2" x1="466.08" y1="342.94" x2="466.08" y2="284.57" xlink:href="#Áåçûìÿííûé_ãðàäèåíò_97"/><linearGradient id="Áåçûìÿííûé_ãðàäèåíò_206" x1="406.62" y1="273.98" x2="401.64" y2="231.29" gradientTransform="matrix(0.97, 0.26, -0.26, 0.97, 61.1, -54.1)" gradientUnits="userSpaceOnUse"><stop offset="0" stop-color="#1852a0"/><stop offset="1" stop-color="#067ed3"/></linearGradient><linearGradient id="Áåçûìÿííûé_ãðàäèåíò_206-2" x1="401.79" y1="274.14" x2="401.79" y2="230.4" xlink:href="#Áåçûìÿííûé_ãðàäèåíò_206"/><linearGradient id="Áåçûìÿííûé_ãðàäèåíò_107" x1="364.81" y1="284.83" x2="361.6" y2="257.21" gradientTransform="matrix(0.94, 0.33, -0.52, 1.49, 176.31, -230.26)" gradientUnits="userSpaceOnUse"><stop offset="0" stop-color="#188dc1"/><stop offset="1" stop-color="#06bfe7"/></linearGradient><linearGradient id="Áåçûìÿííûé_ãðàäèåíò_107-2" x1="334.01" y1="52.34" x2="345.34" y2="10.26" gradientTransform="matrix(1, 0, 0, 1, 0, 0)" xlink:href="#Áåçûìÿííûé_ãðàäèåíò_107"/><linearGradient id="Áåçûìÿííûé_ãðàäèåíò_206-3" x1="314.54" y1="47.49" x2="322.99" y2="16.1" gradientTransform="matrix(1, 0, 0, 1, 0, 0)" xlink:href="#Áåçûìÿííûé_ãðàäèåíò_206"/><linearGradient id="Áåçûìÿííûé_ãðàäèåíò_107-3" x1="-62.14" y1="233.33" x2="-54.41" y2="204.64" gradientTransform="matrix(-1, 0, 0, 1, 121.38, -35.76)" xlink:href="#Áåçûìÿííûé_ãðàäèåíò_107"/><linearGradient id="Áåçûìÿííûé_ãðàäèåíò_206-4" x1="-75.41" y1="230.02" x2="-69.65" y2="208.62" gradientTransform="matrix(-1, 0, 0, 1, 121.38, -35.76)" xlink:href="#Áåçûìÿííûé_ãðàäèåíò_206"/></defs><g class="cls-2"><g id="Layer_2" data-name="Layer 2"><g id="illustration"><g class="cls-3"><path class="cls-4" d="M148.21,196.1q0-.37.36-.36l6.7.2a4.81,4.81,0,0,1,1.69.31,2.89,2.89,0,0,1,1.11.74,2.82,2.82,0,0,1,.59,1.14,4.89,4.89,0,0,1,.15,1.47l-.05,1.85a5.44,5.44,0,0,1-.24,1.46,3,3,0,0,1-.66,1.1,3,3,0,0,1-1.15.68,5.18,5.18,0,0,1-1.71.2l-3.61-.11-.75-2.12h-.09l-.07,2.09-2.53-.08Zm2.34,6.33,4.29.13a1.39,1.39,0,0,0,1-.29,1.6,1.6,0,0,0,.34-1.12l.05-1.5a1.69,1.69,0,0,0-.27-1.15,1.52,1.52,0,0,0-1-.33l-4.1-.12a.15.15,0,0,0-.14,0,.18.18,0,0,0,0,.12Z" transform="translate(-78.34 -35.76)"/><path class="cls-4" d="M162.45,199.93h-.09l-.08,2.68a.15.15,0,0,0,.16.18L170,203l-.07,2.32L160,205a.33.33,0,0,1-.35-.38l.25-8.21a.33.33,0,0,1,.37-.36l9.61.3c.24,0,.36.13.35.38l-.07,2.32-2.37.8h-.1l0-1.2c0-.09,0-.13-.12-.13l-5.07-.16a.18.18,0,0,0-.14,0,.27.27,0,0,0,0,.12l0,1.12,4.17.12,0,1.82-3.5-.1Z" transform="translate(-78.34 -35.76)"/><path class="cls-4" d="M179.21,199.77h-.1l0-1c0-.1,0-.15-.14-.15l-4.72-.14a.42.42,0,0,0-.36.1.46.46,0,0,0-.11.31v.22a.46.46,0,0,0,.07.34.76.76,0,0,0,.33.12l5.53.94a3.63,3.63,0,0,1,.89.26,1.75,1.75,0,0,1,.59.42,1.34,1.34,0,0,1,.31.63,3.34,3.34,0,0,1,.08.88l0,.71a3.12,3.12,0,0,1-.16,1,1.78,1.78,0,0,1-.46.7,2,2,0,0,1-.83.41,4.2,4.2,0,0,1-1.24.11l-8-.24.07-2.32,7.13.21c.22,0,.36,0,.43-.1a.66.66,0,0,0,.12-.41v-.24a.43.43,0,0,0-.07-.33.47.47,0,0,0-.3-.13l-5.34-.84a3.92,3.92,0,0,1-.92-.25,1.64,1.64,0,0,1-.62-.41,1.46,1.46,0,0,1-.34-.61,2.76,2.76,0,0,1-.08-.85v-.63a2.07,2.07,0,0,1,.57-1.49,2.35,2.35,0,0,1,1.73-.48l8,.24a.35.35,0,0,1,.37.41l-.06,1.84Z" transform="translate(-78.34 -35.76)"/><path class="cls-4" d="M182.57,205.72l.27-8.94,2.53.08-.27,8.94Z" transform="translate(-78.34 -35.76)"/><path class="cls-4" d="M194.49,202.25a2.8,2.8,0,0,0,0-.41c0-.15,0-.27,0-.38v-.11l2.5.07-.13,4.39c0,.23-.11.34-.32.34l-6.73-.21a5.16,5.16,0,0,1-1.69-.3,2.71,2.71,0,0,1-1.7-1.89,5.23,5.23,0,0,1-.15-1.47l.06-1.84a4.82,4.82,0,0,1,.24-1.47,2.62,2.62,0,0,1,.66-1.09,2.8,2.8,0,0,1,1.15-.68,4.87,4.87,0,0,1,1.7-.2l6.7.2c.24,0,.35.13.34.38l-.05,1.93-2.38.79h-.1l0-.86c0-.08,0-.12-.11-.12l-4.27-.13a2.28,2.28,0,0,0-.62,0,.85.85,0,0,0-.42.22,1,1,0,0,0-.25.43,2.61,2.61,0,0,0-.09.68l-.05,1.58a1.6,1.6,0,0,0,.27,1.14,1.41,1.41,0,0,0,1,.35l4.24.12c.09,0,.14,0,.14-.14Z" transform="translate(-78.34 -35.76)"/><path class="cls-4" d="M202.31,197.37a.58.58,0,0,1,.61.37l3.19,6.53a.29.29,0,0,0,.23.16h.14a.17.17,0,0,0,.2-.19l.2-6.73,2.3.07-.26,8.59c0,.23-.12.35-.35.34l-3.64-.11a.74.74,0,0,1-.38-.08.72.72,0,0,1-.24-.29L201,199.51a.26.26,0,0,0-.23-.16h-.13c-.13,0-.19.06-.2.19l-.2,6.72-2.3-.07.26-8.58c0-.24.13-.36.35-.35Z" transform="translate(-78.34 -35.76)"/><circle class="cls-5" cx="269.05" cy="195.53" r="155.02" transform="translate(-137.8 211.76) rotate(-45)"/><path class="cls-6" d="M155.1,185.61a23.82,23.82,0,0,0-10.56-9.26l-2.35,1.09,5.3,9.61a10.33,10.33,0,0,1-3.24,5.72v0a10.34,10.34,0,0,1-6.47-1.18l-4-10.23-2.36,1.1a23.8,23.8,0,0,0,.34,14s1,2.31,1.17,2.52c.94,1.08,3.36,2.34,8.06,2.05L157.22,232a8.48,8.48,0,1,0,8.76-4.09l-13.3-32.25c3.16-3.34,3.83-6,3.59-7.49A27.3,27.3,0,0,0,155.1,185.61Zm13.32,53.31-4.29,2-3.88-2.71.41-4.72,4.29-2,3.88,2.71Z" transform="translate(-78.34 -35.76)"/><path class="cls-7" d="M156.27,188.13a23.75,23.75,0,0,0-10.55-9.27l-2.35,1.1,5.29,9.6a10.22,10.22,0,0,1-3.24,5.72h0a10.3,10.3,0,0,1-6.47-1.19l-4-10.22-2.35,1.1a23.84,23.84,0,0,0,.33,14s3.67,4.91,9.23,4.56l16.21,30.92a8.47,8.47,0,1,0,8.76-4.1l-13.31-32.24C157.69,194.09,156.27,188.13,156.27,188.13Zm13.33,53.31-4.29,2-3.88-2.71.41-4.72,4.29-2,3.88,2.72Z" transform="translate(-78.34 -35.76)"/><rect class="cls-8" x="131.92" y="181.76" width="2.59" height="2.78" transform="translate(-143.34 37.85) rotate(-25.04)"/><rect class="cls-8" x="142.66" y="176.76" width="2.59" height="2.78" transform="translate(-140.22 41.93) rotate(-25.04)"/><rect class="cls-8" x="164.5" y="239.79" width="4.74" height="2.78" transform="translate(-164.74 57.55) rotate(-25.04)"/><path class="cls-9" d="M145.66,205.86,158.75,231a6.38,6.38,0,0,0,5.28-2.47l-10.65-26.29A10.09,10.09,0,0,0,145.66,205.86ZM163,228.75a7.36,7.36,0,0,1-1.69,1.11,6.5,6.5,0,0,1-1.81.54l-13.1-24.64a13.75,13.75,0,0,1,3.15-2.07,11,11,0,0,1,3.24-.95Z" transform="translate(-78.34 -35.76)"/><path class="cls-8" d="M163,228.75l1-.21a5.64,5.64,0,0,1-5.28,2.47l.77-.61A7.13,7.13,0,0,0,163,228.75Z" transform="translate(-78.34 -35.76)"/><path class="cls-10" d="M145.66,205.86l.76-.1a12.16,12.16,0,0,1,6.39-3l.57-.49a9.88,9.88,0,0,0-7.72,3.61Z" transform="translate(-78.34 -35.76)"/><path class="cls-11" d="M142.19,203.56a28.93,28.93,0,0,0,11.66-5.42l1.7,4.12s-1.93-1.91-6.16-.18c-4.95,2-4.68,6-4.68,6Z" transform="translate(-78.34 -35.76)"/><path class="cls-12" d="M155.55,202.26a5,5,0,0,0-2.58-.89L165.63,232l1.53-1.58Z" transform="translate(-78.34 -35.76)"/><path class="cls-13" d="M155.55,202.26s-1.32,4.09,2.49,6Z" transform="translate(-78.34 -35.76)"/><path class="cls-14" d="M340.15,381.61h-47c-4.92-27.32-16.36-62.87-16.36-62.87-2.78-1.65-8.21.38-8.21.38L251.4,381.61H208.46c-2.28-38.56,18.82-82.33,18.82-82.33h0a4.73,4.73,0,0,1-.56-2.39,5.68,5.68,0,0,1,1.6-1.86c1.16-1.06,2.54-2.12,2.54-2.12l80.11-.5s.81.41,1.84,1h0c1.75,1.06,4.12,2.7,4.12,3.9a5.47,5.47,0,0,1-.81,3l0,0C333.26,332.75,340.15,381.61,340.15,381.61Z" transform="translate(-78.34 -35.76)"/><path class="cls-15" d="M245.84,381.65l-.49-.09c5.47-32.19,19.34-59.2,19.48-59.47l.05-.07,3.54-3.09.33.37-3.5,3.06C264.63,323.58,251.19,350.12,245.84,381.65Z" transform="translate(-78.34 -35.76)"/><path class="cls-16" d="M299.53,381.65c-5.35-31.55-19.16-58.35-19.78-59.54l-3.12-2.81.33-.37,3.22,2.91c.14.27,14.38,27.52,19.84,59.72Z" transform="translate(-78.34 -35.76)"/><path class="cls-17" d="M316.93,297.33a5.47,5.47,0,0,1-.81,3l0,0c-16.68,3.77-29.37,19.34-29.37,19.34C295.8,337.12,311,381.61,311,381.61H293.15c-4.92-27.32-16.36-62.87-16.36-62.87-2.78-1.65-8.21.38-8.21.38L251.4,381.61H240.28c4-26.18,15.73-58.14,15.73-58.14-11.55-13.45-28.73-24.19-28.73-24.19h0l-2-1.28,1.48-1.11c7.43,7.13,31.39,16.44,32.13,16.73L228.31,295c1.16-1.06,2.54-2.12,2.54-2.12l80.11-.5s.81.41,1.84,1l-21.88,12Z" transform="translate(-78.34 -35.76)"/><polygon class="cls-18" points="198.45 282.98 207.81 276.91 205.58 282.98 203.96 301.25 198.45 282.98"/><polygon class="cls-19" points="190.24 283.36 180.5 277.85 159.65 268.46 186.21 286.01 187.79 292.3 190.24 283.36"/><path class="cls-20" d="M295.38,131.26c.06.43.11.66.11.66a57.27,57.27,0,0,1-1.66,5.66,46,46,0,0,1-6.23,12.12,23.85,23.85,0,0,1-2.72,3.18c-14.59-4.58-21.78-18.85-24.54-25.95a.36.36,0,0,1,0-.11c-.53-1.34-.88-2.42-1.1-3.12h0c-.17-.56-.25-.87-.25-.87l.18-.37,0,0c.24-.5.48-1,.7-1.5a71.16,71.16,0,0,0,4-11.17c.71-2.62,1.09-4.64,1.27-5.71.09-.55.13-.85.13-.85l6.8,3.59,23.43,12.4a38.55,38.55,0,0,0-.5,5.94c0,1.25,0,2.37.09,3.32.07,1.16.19,2.08.28,2.68h0A.68.68,0,0,0,295.38,131.26Z" transform="translate(-78.34 -35.76)"/><path class="cls-21" d="M288.88,154.45A20.1,20.1,0,0,1,284,158l-.12.07-.14-.08h0c-.51-.31-2.25-1.38-4.59-3.14-6.12-4.61-16.34-13.93-19.26-26.49l0-.05a31.14,31.14,0,0,1-.7-4.59h0c0-.41-.06-.82-.07-1.24a64.43,64.43,0,0,0,5.55,9.92c4.14,6.06,10.35,12.67,17.77,12.71,6.42,0,9.71-4.35,11.38-8.4a22.92,22.92,0,0,0,1.35-4.6v0c.07-.36.12-.68.17-.95h0c0-.14,0-.26.05-.37.06-.45.08-.71.08-.71S298,145.38,288.88,154.45Z" transform="translate(-78.34 -35.76)"/><path class="cls-22" d="M288.88,154.45A20.1,20.1,0,0,1,284,158h-.27c-.51-.31-2.25-1.38-4.59-3.14-6.12-4.61-16.34-13.93-19.26-26.49l0-.05a31.14,31.14,0,0,1-.7-4.59h0c0-.41-.06-.82-.07-1.24a64.43,64.43,0,0,0,5.55,9.92s4,11.1,12.78,16.6c4.38,2.75,7.7,2.35,10.14.73a15.09,15.09,0,0,0,4.95-6.54,15.38,15.38,0,0,0,1.28-5.58q0-.5,0-.9a22.92,22.92,0,0,0,1.35-4.6v0c.07-.36.12-.68.17-.95h0c0-.14,0-.26.05-.37.06-.45.08-.71.08-.71S298,145.38,288.88,154.45Z" transform="translate(-78.34 -35.76)"/><path class="cls-23" d="M345,245.14l-.16.08c-.82.1-3.37-.46-6.71-3.35h0s0,0,0,0,0,0,0,0c-2.8-2.45-6.16-6.54-9.51-13.24-6.7-13.39-8.62-22.33-8.93-23.89l0-.24-3.91,6.2c-2.65,8-7.67,40.95-7.58,42.37s4.45,8.34,4.36,9.19v0c-.12.86-2.08,2.75-2.64,4.81-.38,1.37,2.28,5.69,4.15,8.92h0a13.13,13.13,0,0,1,1.72,3.58c0,1.51-4.74,8.9-4.74,8.9v4l-.07.07-.22.2-.18.15c-1.8,1.42-9.43,6.07-33.27,7.35-28.25,1.51-47.07-7.58-47.07-7.58l1.42-3.89s-1.32-1.13-1.42-1.7,1-1.9,1-1.9-2.84-1.51-2.84-3.41,5.69-7.76,5.5-12.79-4.55-9.47-5.12-12.31,7.39-9.85,7.39-9.85c-6.82-21.6-8.15-50.59-8.15-50.59l-1.32-1.52s-8.15,18.57-15.54,27.66c-.88,1.08-1.81,2.15-2.77,3.18a81,81,0,0,1-6.36,6.15c-5.12,4.46-9.77,7.39-10.95,7.16-1.9-.38-9.48-15.35-9.13-30.7.16-7.3,4.56-15.47,9.13-22,.49-.7,1-1.39,1.48-2.06a104.89,104.89,0,0,1,7.84-9.45c.58-.62.91-1,.91-1s-1-3.35-1.75-6.26a1.6,1.6,0,0,0,0-.21.36.36,0,0,0,0-.1.31.31,0,0,0,0-.07c-.42-1.79-.68-3.34-.44-3.72.63-1,4.3-2.15,4.93-2.9s3.28-13.52,5.3-14.91,5.35-2.3,16.72-6.77l1.73-.68c12.75-5,25.26-11.18,25.26-11.18l4.8-5.9h2.14l-.7,1.5,0,0c.34,1.52.73,3,1.17,4.37a.36.36,0,0,0,0,.11c6.6,20.82,23.58,27.53,23.58,27.53,11.8-8.71,11.57-22.54,11.57-22.54V130l2.21.66,1.51,3.6s2.56,4,12.7,8.44a60.32,60.32,0,0,1,5.57,2.85c9.28,5.27,19.6,13.42,20.39,15.15a5.61,5.61,0,0,1,.27.86h0c1.09,4.28,3.33,20.31,5.41,26a13.1,13.1,0,0,0,4.86,6.56h0a7.61,7.61,0,0,0,1.94,1q.24,1.32.45,2.61C355.17,225.23,346.9,243.84,345,245.14Z" transform="translate(-78.34 -35.76)"/><path class="cls-24" d="M236.21,193.38,228,196.15l-1.32-1.52s-8.15,18.57-15.54,27.66c-.88,1.08-1.81,2.15-2.77,3.18a81,81,0,0,1-6.36,6.15l-6.28-27.07L192.51,184a104.89,104.89,0,0,1,7.84-9.45c.58-.62.91-1,.91-1s-1-3.35-1.75-6.26a1.6,1.6,0,0,0,0-.21.36.36,0,0,0,0-.1.31.31,0,0,0,0-.07c-.42-1.79-.68-3.34-.44-3.72.63-1,4.3-2.15,4.93-2.9s3.28-13.52,5.3-14.91c0,0-1.32,12.25,5.69,27.79l3.41,4.8,10,8S232.08,191.07,236.21,193.38Z" transform="translate(-78.34 -35.76)"/><path class="cls-25" d="M212.37,215.54C210.6,228.67,191,238.78,191,238.78c-4.36,0-9.23-7.58-13.65-16.93s-4.69-36.21-4.92-37.87-2.7-5-2.85-6.4,4-4.36,4-4.36l0-.07,0-.07c-.43-.92-2.85-6.11-2.68-7.06s4.82-3.31,4.82-3.31l.29,5.11s10.78-2,14.43-10.39l.64-2.56,1.8,1.2v11s.37,1.71.94,1.71,4.77-2.1,5.65-1.81,1.76,6.17,2.94,6.92,4.3,2.94,4.77,4a19,19,0,0,1,.25,4.15,42.4,42.4,0,0,0,.41,6.94C208.46,191.88,214.14,202.4,212.37,215.54Z" transform="translate(-78.34 -35.76)"/><path class="cls-26" d="M391.36,204.29c-.88,1.39-5.3,4.3-6.44,5.44s0,4.87,0,4.87A153.35,153.35,0,0,1,345,245.14l-.16.08c-11.66-7.84-10.66-20.75-6.79-31.63a82.1,82.1,0,0,1,10.32-19.38h0a24.41,24.41,0,0,1,5.92-1.64,3.59,3.59,0,0,1,2.19.68c1.42.88,2.62,2.27,3.78,1.69,1.71-.86,5.53-9.89,8.12-10.14,1.81-.17,4.32,1.67,6,2.72.73.46,1.3.77,1.58.69.95-.25,4.17-4.11,4.43-4.21s1.72,1,1.72,1l-1,1.28a35,35,0,0,0,6.76,15.22l3.47-5.08S392.25,202.9,391.36,204.29Z" transform="translate(-78.34 -35.76)"/><path class="cls-27" d="M295.43,130.87c0,.13,0,.26-.05.39a7.73,7.73,0,0,1-.19.8v0c-1.19,4.41-6,8.92-12.07,6.75-6.63-2.37-19.25-29.1-19.25-29.1l1.27-5.71,29.95,24.4.33,2.31Z" transform="translate(-78.34 -35.76)"/><path class="cls-28" d="M195.7,126s-1.83-10.1-1-17.55a80.9,80.9,0,0,0-.21-15.92,4.06,4.06,0,0,0-3.14,0c-1.32.76-4.42,8.46-3,14.65s.32,21,.32,21h-2.09L182,121.93l-2.21-.63s-12.73,12-12.54,19.14l1.66,6.35,15.68-.54,10.23-11.69Z" transform="translate(-78.34 -35.76)"/><path class="cls-29" d="M179.79,121.3a80.75,80.75,0,0,0,2.11,14.78,3.54,3.54,0,0,1-3.57,3l-.8-.9s-.57,3.18-3.46,3.41l-2.75-2.74.71,2.27a3.87,3.87,0,0,1-3.6,2.32s-4.35-3.41-4.64-7.86l4.31-3.65v-2.79l5.12-3.6.09-2A12,12,0,0,1,179.79,121.3Z" transform="translate(-78.34 -35.76)"/><path class="cls-30" d="M194.87,106.28A7.1,7.1,0,0,1,193,109a16.25,16.25,0,0,1-4.25,1.33l-.14,17.87h-2.09L182,121.93s2.3,3.57,2.44,6.26l-1.8.88-1.56-5.35-.74,3.85.74,4.79a12.53,12.53,0,0,1,7.57-2.41l.74,1.33s-8.83,7.31-10.87,11.62c0,0,4.36-5.54,14.31-11.65l.95-2.94,1.25-7S193.84,111.2,194.87,106.28Z" transform="translate(-78.34 -35.76)"/><path class="cls-31" d="M202.27,137.41c-.82,2.46-9.41,12.69-10.36,14.91a30,30,0,0,0-1.52,5.11c-4.22,9.13-14.43,10.39-14.43,10.39l-.47-8.24s-5.49-3.16-6.42-4.89v0l-.11-.29a68.8,68.8,0,0,1,0-7.58l9.61-3.89c4.17-5.4,14.31-11.65,14.31-11.65l.47-2.83c-7.28-3.58-6.06-14.41-4.83-15.74a5.4,5.4,0,0,1,3.5-1.32s2.66,8.71,4.36,12.79S203.09,135,202.27,137.41Z" transform="translate(-78.34 -35.76)"/><path class="cls-32" d="M173.31,123.48s1.08,10,4.22,14.68a23.08,23.08,0,0,1-4.31-12.64Z" transform="translate(-78.34 -35.76)"/><path class="cls-32" d="M168.1,129.12s1,8,6,12.45c0,0-4.36-2.17-6-9.66Z" transform="translate(-78.34 -35.76)"/><path class="cls-33" d="M193.24,150.2s-10.83,10.51-17.75,9.38l.47,8.24a18.3,18.3,0,0,0,15.07-13A31.11,31.11,0,0,1,193.24,150.2Z" transform="translate(-78.34 -35.76)"/><path class="cls-34" d="M422.28,164.5s-9.95,18.19-21.6,23.78h-4l-9.19,13.93s-5.94-3.73-6.38-16a11.17,11.17,0,0,0,2.59-4.62s-3.28-2.58-4.17-4.47-1.2-7.58-1.83-9.92-6-7.2-7.2-7.83-6.63-.95-6.63-.95-.76-2,0-2.9,9.22-4.24,13.83-1.08a20.77,20.77,0,0,0,.82,3.67c.51,1.26,4.55,5.74,5.18,5.74s3.35-2.27,4.55-4A178.56,178.56,0,0,0,397,140.51a.5.5,0,0,1,0-.13c0-.07.05-.14.06-.2a.93.93,0,0,0,0-.13s0,0,0-.05c1.14-3.85,7.77-11.24,11.31-13.26a2.09,2.09,0,0,1,2.33,1.51S408,136.34,405,141.14c-.5.81-1,1.76-1.6,2.78h0c-2.53,4.65-5.38,10.74-5.79,11.63l-.05.11,1.58.81,4.27-4.05,4.38-4.15,10.05,10.61-1,1.26-3.14,4,1.59.29,3.7-4.09Z" transform="translate(-78.34 -35.76)"/><path class="cls-35" d="M420,168.36,416.78,173s-17.46-13.46-21.25-14.6-5.18-.38-5.18-.38l-3.91,5s7.2,6.38,7.83,15c0,0-2.4-10.86-10.55-14.15.63,0,3.35-2.27,4.55-4A178.56,178.56,0,0,0,397,140.51a5,5,0,0,0,.16,3.41c.86,1.59,5.92.09,6.22,0h0l-5.8,11.63-.05.11,1.58.81,4.27-4.05-2.14,5,15.58,2.75-3.14,4,1.59.29Z" transform="translate(-78.34 -35.76)"/><path class="cls-36" d="M407.79,148.27s3-.44,5,3.47l-.45,1.27s3,.58,5.81,5.36a16.13,16.13,0,0,1-8.78,6.7s-2.9-.82-3.41-3.28l.57-1.58-2.27,1.7s-2.72.82-3.92-3.22Z" transform="translate(-78.34 -35.76)"/><path class="cls-37" d="M423.2,163.24a4.68,4.68,0,0,0-2.47-4.8l-6,6.63a3.09,3.09,0,0,0,2.78,2.59S421.62,166.27,423.2,163.24Z" transform="translate(-78.34 -35.76)"/><path class="cls-38" d="M379.55,177.14a44.58,44.58,0,0,0,17.15,11.14l-4.39,6.66-9.18-11.65.59-1.68S380.06,178.85,379.55,177.14Z" transform="translate(-78.34 -35.76)"/><path class="cls-32" d="M412.33,153s-2.9,4.8-5.81,7.2l-.57,1.58s5.64-3.81,7.72-8.21A3.54,3.54,0,0,0,412.33,153Z" transform="translate(-78.34 -35.76)"/><path class="cls-39" d="M391.36,204.29c-.88,1.39-5.3,4.3-6.44,5.44s0,4.87,0,4.87A153.35,153.35,0,0,1,345,245.14l-.16.08c-1.52.19-8.91-1.89-16.3-16.67-6.7-13.39-8.62-22.33-8.93-23.89l0-.24,1.63-2.21,2.42-27.28,1.7,5.49c6.44-7.77,12.51-19.7,12.51-19.7l.27.86h0c1.09,4.28,3.33,20.31,5.41,26a13.1,13.1,0,0,0,4.86,6.56v0h0c-5.93,5.41-8.87,13.19-10.32,19.38a53.68,53.68,0,0,0-1.42,10,67.43,67.43,0,0,1,6.82-17,36.5,36.5,0,0,1,7.33-8.85,58.85,58.85,0,0,1,5.72-4.58c1.42.88,2.62,2.27,3.78,1.69-7.8,11.71-7.61,34.89-.28,30.47s9-13.8,9-13.8c-1.73-11.43-1.22-24.33.17-26.78,1.69.06,6.52,3.46,6.8,3.38a39.6,39.6,0,0,0,5.88,22.43l4.17-6.45A40,40,0,0,1,380.44,184c.25-.11,1.72,1,1.72,1l-1,1.28a35,35,0,0,0,6.76,15.22l3.47-5.08S392.25,202.9,391.36,204.29Z" transform="translate(-78.34 -35.76)"/><path class="cls-40" d="M311,288.42v4l-.07.07-.22.2-.18.15c-1.8,1.42-9.43,6.07-33.27,7.35-28.25,1.51-47.07-7.58-47.07-7.58l1.42-3.89s-1.32-1.13-1.42-1.7,1-1.9,1-1.9-2.84-1.51-2.84-3.41c0-1.71,4.64-6.66,5.39-11.31a6.76,6.76,0,0,0,.11-1.48c-.19-5-4.51-9.43-5.11-12.27a.16.16,0,0,1,0,0c-.57-2.84,7.39-9.85,7.39-9.85-6.82-21.6-8.15-50.59-8.15-50.59l-1.32-1.52s-8.15,18.57-15.54,27.66S192.92,239.16,191,238.78c-4.36,0-9.23-7.58-13.65-16.93s-4.69-36.21-4.92-37.87-2.7-5-2.85-6.4c4.74,8.15,12.29,5.75,12.29,5.75-5.47.12-8.31-10.11-8.31-10.11l0-.07,0-.07L170.86,166c.3.34,6.55,7.33,12.59,3,6.19-4.42,9.38-13,9.38-13v11s.37,1.71.94,1.71A134.15,134.15,0,0,1,191,186.06c-2.81,13.13-6.66,25.81-6.66,25.81s10.44-5.68,14.11-20.08a60.74,60.74,0,0,0,1.87-17.24,43.22,43.22,0,0,0-.84-7.21,1.6,1.6,0,0,0,0-.21.36.36,0,0,0,0-.1.43.43,0,0,0,0-.05l1,2.14,1.92,4.76c2.23,18.48-2.37,46.33-2.37,46.33,6.7-8.34,8.09-26.78,7.8-31.26-.13-2.14-.3-4.78-.41-6.94-.15-2.36-.25-4.15-.25-4.15L220.84,186l-2.53-8,10,8s9,10.8,18.19,12.06,43.07.51,43.07.51-29.43,1.89-38,4.42-10.23,5.43-10.23,5.43C247.51,240.05,281.88,250.7,283,251c-31.18-4.68-45.69-31.19-45.69-31.19s-.51,14.91,1.89,20.59S255.7,260,273.89,262.9a41.89,41.89,0,0,0,4.53.46c15.34.72,28-7.12,29.34-8l.11-.07,0,0c-.49.75-6.78,9.59-32.18,10.56-1.54.06-3,.05-4.5,0h0c-23.54-1-35.53-16.67-35.53-16.67s-8.71,4.68-3.15,11.62l.18.22c1.64,1.89,5.25,4.2,9.52,6.58l.35.2c5.16,2.85,11.21,5.79,15.89,8.22l.07,0a59.23,59.23,0,0,1,6.52,3.73h0c1.32,1,1.59,1.58.3,1.73-6.57.76-31.45-4.67-32.46-3.16s1.23,5.43,1.23,5.43c22.84,11.32,71.71,5.74,73.25,5.57-40.9,10.47-74.36-2.79-74.36-2.79l1.11,3.92a146.33,146.33,0,0,0,39.69,6.82c21.48.5,34.87-5,34.87-5Z" transform="translate(-78.34 -35.76)"/><path class="cls-41" d="M294.23,198.48s16.27.88,27,3.73l-5.55,8.41A73.77,73.77,0,0,0,294.23,198.48Z" transform="translate(-78.34 -35.76)"/><path class="cls-42" d="M309.43,243.32s-10.15,8.47-20.13,12.38a67.34,67.34,0,0,1-19.58,4.3s5.74,1.7,19.86-.57,18.94-9.92,18.94-9.92Z" transform="translate(-78.34 -35.76)"/><path class="cls-43" d="M314,275.93h0c-18.78,4.85-42.62-2.11-42.42-3s6.53.38,21.21-2.56c14.23-2.85,19.39-7.91,19.7-8.22-.12.86-2.08,2.75-2.64,4.81C309.45,268.38,312.11,272.7,314,275.93Z" transform="translate(-78.34 -35.76)"/><path class="cls-44" d="M263,201c-16,1.63-20.36,6.1-20.36,6.1-4.51.57-14.64-11-14.64-11l-1.32-1.52s-8.15,18.57-15.54,27.66c-.88,1.08-1.81,2.15-2.77,3.18l1-2.36s1.72-.82,2.22-9.85-3.79-22.48-3.82-24.31-.66-11.09-.66-11.09L220.84,186l-2.53-8,10,8s3.91,5.88,13.78,10.78C251.38,201.45,261.82,201.08,263,201Z" transform="translate(-78.34 -35.76)"/><path class="cls-45" d="M226.65,194.63l9.56-1.25A71.76,71.76,0,0,0,247.7,199l-6.4,9.43s2.54,13.44,9.82,21c0,0-19.32-10.73-22-19.76Z" transform="translate(-78.34 -35.76)"/><path class="cls-46" d="M170.86,166l2.73,7.19s2.79,9.7,8.31,10.11,10.93-16.27,10.93-16.27v-11s-5.88,12.6-12.22,14S170.86,166,170.86,166Z" transform="translate(-78.34 -35.76)"/><path class="cls-47" d="M203.91,160.34s4.93,9.85,11,12.88c0,0-7.21-17.5-5.69-27.79C209.21,145.43,206.56,147.08,203.91,160.34Z" transform="translate(-78.34 -35.76)"/><path class="cls-48" d="M323.66,174.93l1.7,5.49,1.73,45.05a108.67,108.67,0,0,1-7.44-20.81l1.6-2.45S323.92,185.23,323.66,174.93Z" transform="translate(-78.34 -35.76)"/><path class="cls-49" d="M376,188.19s-1,22.13,8.45,24l.46,2.37S372.76,214.15,376,188.19Z" transform="translate(-78.34 -35.76)"/><path class="cls-50" d="M360.32,194.92s-.36.79-3.78-1.69c0,0-11.83,8.38-16.39,20.19,0,0,7.3-10.85,11.18-12s4.81,3.16,4.81,3.16S357.68,198.45,360.32,194.92Z" transform="translate(-78.34 -35.76)"/><path class="cls-51" d="M169.61,177.58s4.55,8.39,13.08,5.75c0,0-5.11,3.45-10.23.65C172.46,184,169.28,178.52,169.61,177.58Z" transform="translate(-78.34 -35.76)"/><path class="cls-52" d="M199.42,167s6.26,23.4-10.07,41a27.1,27.1,0,0,0,13-18A38.75,38.75,0,0,0,199.42,167Z" transform="translate(-78.34 -35.76)"/><path class="cls-53" d="M311.56,148.25s-.7,10.57-5.76,18.15-15.11,12.69-15.11,12.69,12.6-4.64,18.38-11.18S311.56,148.25,311.56,148.25Z" transform="translate(-78.34 -35.76)"/><path class="cls-54" d="M247.11,132.36A66.92,66.92,0,0,0,250,150.2c2.85,9,27.52,24.72,27.52,24.72S252,164.36,247.11,154.86,247.11,132.36,247.11,132.36Z" transform="translate(-78.34 -35.76)"/><path class="cls-55" d="M246.82,174.42v14.39s33.11-.27,70.24,2.19l.85-12.95A646.53,646.53,0,0,0,246.82,174.42Z" transform="translate(-78.34 -35.76)"/><path class="cls-56" d="M299.21,134.28c-.78,9.3-3.61,15.78-6.63,20.15-4.16,6-8.66,8-8.66,8a52,52,0,0,1-11.76-7.09A60,60,0,0,1,253,126.89c6,14.54,14.86,23.35,21.56,28.31a43.28,43.28,0,0,0,9.41,5.52v-4.65a30.9,30.9,0,0,1-3.1-1.36c-11.8-6-18-18.35-20.9-26.37l0-.05a57,57,0,0,1-2.18-7.39h2.14l-.7,1.5,0,0c.34,1.52.73,3,1.17,4.37a.36.36,0,0,0,0,.11c6.6,20.82,23.58,27.53,23.58,27.53,11.8-8.71,11.57-22.54,11.57-22.54V130l2.21.66Z" transform="translate(-78.34 -35.76)"/><path class="cls-57" d="M369.21,184.81s-3.2,10.48-.17,26.78c0,0,1.51-20.66,2.65-22.46s4.32-.94,4.32-.94A74.15,74.15,0,0,0,369.21,184.81Z" transform="translate(-78.34 -35.76)"/><path class="cls-58" d="M338.09,241.79c-2.8-2.45-6.16-6.54-9.51-13.24-6.7-13.39-8.62-22.33-8.93-23.89l1.59-2.45,2.13-20.6,2-1.19a84.28,84.28,0,0,0,12.51-19.7,5.61,5.61,0,0,1,.27.86h0c1.09,4.28,3.33,20.31,5.41,26a13.1,13.1,0,0,0,4.86,6.56s-12.31,18.26-12.91,31.29C335,237.33,337.61,241.19,338.09,241.79Z" transform="translate(-78.34 -35.76)"/><path class="cls-59" d="M265,279.87s-22.19-3.64-31.25-9.48h0a6.76,6.76,0,0,0,.11-1.48c-.19-5-4.51-9.43-5.11-12.27.1.27.75,1.77,3.9,4.47a66.94,66.94,0,0,0,9.52,6.58l.35.2c6.4,3.78,11.91,6.34,15.89,8.22l.07,0c3.58,1.68,5.9,2.79,6.52,3.73Z" transform="translate(-78.34 -35.76)"/><path class="cls-60" d="M312.47,262.2c-.12.86-2.08,2.75-2.64,4.81,0,0-8.14,8.62-38.27,6,.2-.85,6.53.38,21.21-2.56C307,267.57,312.16,262.51,312.47,262.2Z" transform="translate(-78.34 -35.76)"/><path class="cls-61" d="M317.48,145.57l-19.26,6.24-5.64,2.62h-8.66l-3.1.25-1.64.12-4.67.37-2.35.19L249.06,147l-4.13-1.49-19-6.88,1.73-.68c12.75-5,25.26-11.18,25.26-11.18l4.8-5.9h2.14a71.16,71.16,0,0,0,4-11.17l1.27-5.71c.09-.55.13-.85.13-.85l6.8,3.59L295,125.1c0,1.25,0,2.37.09,3.32l.33,2.31c.06-.45.08-.71.08-.71l2.21.66,1.51,3.6s2.56,4,12.7,8.44A60.32,60.32,0,0,1,317.48,145.57Z" transform="translate(-78.34 -35.76)"/><path class="cls-62" d="M302.81,128a31.37,31.37,0,0,1-18.89-2.78c-9.91-4.8-18.24-19-18.75-22.48S269,90,269,82.78s-3.53-19.58,2.4-26.28,33.22-7.7,42.07.89c0,0,2.74,6.88,2.74,10.77a28.33,28.33,0,0,1-.42,3.91c-.08.59-.19,1.22-.29,1.87-.79,4.71-1.88,10.46-1.37,13a12.64,12.64,0,0,0,.79,2.46h0c1.09,2.52,2.71,4.53,3,6.71C318.26,99,314.44,119.16,302.81,128Z" transform="translate(-78.34 -35.76)"/><path class="cls-63" d="M268.89,80.74s-2.45-6.14-8.61-6.24c0,0-3.6,1.42-4.17,4.17,0,0,1.33,10,2.84,14.59s7.08,4,7.08,4A23.55,23.55,0,0,0,268.89,80.74Z" transform="translate(-78.34 -35.76)"/><path class="cls-64" d="M292.56,101a5.61,5.61,0,0,1,2.93.5c.89.66,4.11,3.79,8.18,4.64s6.81-2.61,7.67-2.79,1.83,1.05,1.83,1.05a3.43,3.43,0,0,0-2.5-2.06s-.86,3.26-6.76,2.15-8.42-3.75-8.42-3.75l-.3-.53A15.2,15.2,0,0,0,292.56,101Z" transform="translate(-78.34 -35.76)"/><path class="cls-65" d="M283.84,70.41l.08-.64s5.89-10.33,17.55-10.62,14.28,7,14.28,7l2.16-3.27L313,52.9l-34.24-.57-8.33,6.73-1.06,16.47,3.71,21.73,9,4.81,2.54-2.26c-.94-7.28-6.35-13.93-6.35-13.93l4-2.74s10.13,4.91,16,3.44c0,0,4.41-12.86,4.16-22.38C302.38,64.2,287.36,66.42,283.84,70.41Z" transform="translate(-78.34 -35.76)"/><path class="cls-66" d="M283.32,71.17s.57-3.72,6.85-5.21c7-1.66,12.69-3.06,12.69-3.06s-1.24,4.08-3.57,5.61c0,0-7.41-.27-11.16.58S283.32,71.17,283.32,71.17Z" transform="translate(-78.34 -35.76)"/><path class="cls-66" d="M315.75,66.17s-3.55,2.74-6,9.28c0,0,2.32-3,4.45-3a1.23,1.23,0,0,1,1.23,1.48A13.69,13.69,0,0,0,315.75,66.17Z" transform="translate(-78.34 -35.76)"/><path class="cls-67" d="M285.67,81.7s.38-7.86,8.05-9.85a16,16,0,0,1,3,7.58S292.68,78.67,285.67,81.7Z" transform="translate(-78.34 -35.76)"/><path class="cls-68" d="M307.65,84.83s.62-6.26,4.21-8.58c0,0,2.45,1.84,2.2,7.08C314.06,83.33,311.91,82.55,307.65,84.83Z" transform="translate(-78.34 -35.76)"/><path class="cls-69" d="M285.67,81.7s2.49,3.06,9.47,3.66a10.92,10.92,0,0,0,1.21-6S289.93,78.76,285.67,81.7Z" transform="translate(-78.34 -35.76)"/><path class="cls-69" d="M307.65,84.83v.91s1.07,2.25,4.93,2.62a10.69,10.69,0,0,0,1.34-5.07S311.47,82.68,307.65,84.83Z" transform="translate(-78.34 -35.76)"/><path class="cls-70" d="M293.13,79.22a8.62,8.62,0,0,0-1.61,5.54,25.62,25.62,0,0,0,3.62.6,9.4,9.4,0,0,0,1.21-6A9.54,9.54,0,0,0,293.13,79.22Z" transform="translate(-78.34 -35.76)"/><path class="cls-70" d="M311.31,83.4s-1,1.07-1.2,4.36a7.61,7.61,0,0,0,2.47.6,9.13,9.13,0,0,0,1.34-5.07A4.42,4.42,0,0,0,311.31,83.4Z" transform="translate(-78.34 -35.76)"/><path class="cls-66" d="M292.56,85s-.64-4.25,1.79-5.87l2,.25a8.53,8.53,0,0,1-1.21,6S293.17,85.14,292.56,85Z" transform="translate(-78.34 -35.76)"/><path class="cls-66" d="M312.18,83.21A18.29,18.29,0,0,0,310.86,88a5.67,5.67,0,0,0,1.72.32,8.27,8.27,0,0,0,1.34-5.07A4.2,4.2,0,0,0,312.18,83.21Z" transform="translate(-78.34 -35.76)"/><path class="cls-71" d="M285.67,81.7s4.64-2.7,12.55-1.16l-1.47-1.11A13.19,13.19,0,0,0,285.67,81.7Z" transform="translate(-78.34 -35.76)"/><path class="cls-71" d="M307.65,84.83a12.49,12.49,0,0,1,8.06-.93l-1.79-1.33S311,82.13,307.65,84.83Z" transform="translate(-78.34 -35.76)"/><path class="cls-13" d="M290.69,81.7a2.74,2.74,0,0,1,2.4.87A2.18,2.18,0,0,1,290.69,81.7Z" transform="translate(-78.34 -35.76)"/><path class="cls-13" d="M309.35,85.36s2-.38,2.67.52C312,85.88,311,86.61,309.35,85.36Z" transform="translate(-78.34 -35.76)"/><path class="cls-72" d="M286.14,82.16a18.13,18.13,0,0,0,9.38,4.42l.15-2.1-.53.88S289.59,85,286.14,82.16Z" transform="translate(-78.34 -35.76)"/><path class="cls-72" d="M307.65,85.74s.64,2.31,5.34,3.35L312.84,88l-.26.4S309.24,87.94,307.65,85.74Z" transform="translate(-78.34 -35.76)"/><path class="cls-73" d="M298.22,95a17.2,17.2,0,0,1,5,0c3.22.38,6.84,1.27,8.82,0,0,0-2.63,2.64-4.91,3s-5.75-1.6-5.75-1.6l-1.51,0A4.1,4.1,0,0,1,298.22,95Z" transform="translate(-78.34 -35.76)"/><path class="cls-74" d="M300.07,96.42a2.39,2.39,0,0,1,1.45-.38c.67.12,1.34,1.09,1.34,1.09A6.61,6.61,0,0,0,300.07,96.42Z" transform="translate(-78.34 -35.76)"/><path class="cls-75" d="M312,95c.84-.82-3.52-8.58-5.6-8.87s-4,8.71-4,8.71l5.71.78C310.9,96,312,95,312,95Z" transform="translate(-78.34 -35.76)"/><path class="cls-76" d="M315.13,70.53c-1.18-.15-5.35,4.92-5.35,4.92s-2.65,8.21-2.13,10.64,7,3.73,7,3.73l.27-.43h0a12.64,12.64,0,0,1-.79-2.46c-.51-2.52.58-8.27,1.37-13a9.67,9.67,0,0,0,.29-1.87C315.78,71.31,315.67,70.59,315.13,70.53Z" transform="translate(-78.34 -35.76)"/><path class="cls-77" d="M314.94,103.87c-1.33-2.78-.51-4.23-12.06-5.74-16.35-2.15-17.75,2.84-20.53,2.08a2.67,2.67,0,0,1-.33-.12c-3-1.17-10.1-8.14-10.28-17.53-.19-9.76,6.35-16.68,6.35-16.68-2.37-2-3.32-7.76-.76-10.23s6.92-1.89,17.62-.76,10.71.48,10.71.48c3.4.87,5.35,4.06,5.9,5.08.11.2.16.32.16.32l1.33-1.23A17.42,17.42,0,0,1,316,70.43s5.87-11.94,5.2-13.63a45.38,45.38,0,0,0-4.82-8h0s-.95-9.09-3.79-9.09-15,2.74-15,2.74a17.22,17.22,0,0,0,1.14-6.72l-.05.05c-4,3.55-7.83,3.94-13.31,6.48A13.87,13.87,0,0,0,280.25,46l-.37.44-.39.47c-.38.48-.77,1-1.24,1.47a.33.33,0,0,1-.06.06l0,0A15.68,15.68,0,0,1,276.57,50c-3.6,2.93-11.52,4.89-12.47,8s1.2,7.32,2.34,11.68a23.73,23.73,0,0,1,.61,8.21,16.13,16.13,0,0,1,2.52,12c-1.11,6.37-3.54,7.41-3.54,7.41a10.91,10.91,0,0,0-.9,6.79c3.5,13.92,18,22.21,18,22.21,12.88,4.8,21.35,2.71,21.35,2.71h0c9.37-6.11,12.58-26.33,12.72-27.27C317,101.91,315.29,104.61,314.94,103.87Zm-5.78,12.89c-2.27-.38-2.75-6.13-3.5-6.89s-4.87-.44-4.87-.44-3.79,4.3-5.3,4.42-9.6-3.16-7.85-8.08,7.85-5.56,7.85-5.56a14.8,14.8,0,0,0,7.89,3c4.74.31,6.45-.56,7-.81s3.62,1.13,3.54,5.43C313.88,110.78,311.44,117.14,309.16,116.76Z" transform="translate(-78.34 -35.76)"/><path class="cls-78" d="M308.57,87.82s4.09,5.07,3.7,7c-.43,2.08-5.16,3.2-5.16,3.2s3.79-1.31,4.57-3.2A24.92,24.92,0,0,0,308.57,87.82Z" transform="translate(-78.34 -35.76)"/><path class="cls-79" d="M316,70.43a17.42,17.42,0,0,0-2.94-10.89,29.09,29.09,0,0,0,3.31-10.71h0a36.71,36.71,0,0,1,1.54,7.1l3.28.86C321.86,58.49,316,70.43,316,70.43Z" transform="translate(-78.34 -35.76)"/><path class="cls-80" d="M311.56,60.45c-.55-1-2.5-4.21-5.9-5.08,0,0,0,.66-10.71-.48s-15.06-1.7-17.62.76-1.61,8.24.76,10.23c0,0-6.54,6.92-6.35,16.68C271.92,92,279,98.92,282,100.09l-.14,1s.53,21.5,5.76,23.21,16.06.82,17.07,1.83-.14,2.61-.24,2.76h0S296,131,283.11,126.23c0,0-14.48-8.29-18-22.21a10.91,10.91,0,0,1,.9-6.79s2.43-1,3.54-7.41a16.13,16.13,0,0,0-2.52-12,23.73,23.73,0,0,0-.61-8.21c-1.14-4.36-3.29-8.59-2.34-11.68a13.64,13.64,0,0,0,10-2.21s1.06-1.47,5.75-2.23,23.54,1.14,23.54,1.14a16.2,16.2,0,0,0-5.87-2.61c-3.76-1-16.6.16-18,.27,1.47-.26,16-2.76,17.69-2.26s8.06,3.41,8.06,3.41c-.57-2.89-6.21-9.85-6.21-9.85A88.48,88.48,0,0,0,286,44.85a17,17,0,0,0-7.7,3.54l1.24-1.47.39-.47.37-.44,1.82-.31L291.21,42c3.07-1.64,7-5.7,7.48-6.2l.05-.05a17.22,17.22,0,0,1-1.14,6.72c7.72-.95,10.33-.47,10.33-.47C311.44,47,311.56,60.45,311.56,60.45Z" transform="translate(-78.34 -35.76)"/><path class="cls-81" d="M283.11,126.23a47.85,47.85,0,0,1,11.88-.84c7.14.29,11.24.32,9.47,3.55C304.46,128.94,295.49,131,283.11,126.23Z" transform="translate(-78.34 -35.76)"/><path class="cls-82" d="M307.93,42s4.34-1.7,6.06-1.42a3.37,3.37,0,0,0-1.39-1.09c-.71-.19-15,3-15,3S306.51,41.44,307.93,42Z" transform="translate(-78.34 -35.76)"/><path class="cls-83" d="M299.12,43.62s-.34,4.72-1.85,6.44l-17.69,2.26-5.19-.92A13.12,13.12,0,0,0,278.61,48C280.82,45.39,292.35,42.86,299.12,43.62Z" transform="translate(-78.34 -35.76)"/><path class="cls-84" d="M316.36,48.83a39.82,39.82,0,0,1,1.55,7.11l3.28.86A23.45,23.45,0,0,0,316.36,48.83Z" transform="translate(-78.34 -35.76)"/><path class="cls-85" d="M268.16,89.09s-1.24-6-4.29-8.92a7.2,7.2,0,0,0-6.53-2s1,11.07,2,13.77,2.51,3.41,2.51,3.41a8.46,8.46,0,0,1-2.42-5.53c-.28-3.66-.38-8.82.43-9.44s4.06,1.79,4.06,1.79a10.83,10.83,0,0,0-1.65,4.52c-.61,3.26,1.66,5.63,2.51,5.58s0-3.77.1-4.84S266.86,86.58,268.16,89.09Z" transform="translate(-78.34 -35.76)"/><path class="cls-86" d="M265.12,81.67a7.46,7.46,0,0,0-3,6.68c.36,4.48,2.92,4.29,2.93,3.34s-.49-3.36-.23-4.73,2.47-.75,2.47-.75A32.65,32.65,0,0,0,265.12,81.67Z" transform="translate(-78.34 -35.76)"/><path class="cls-87" d="M317.19,101.66s-4.13,18.87-12.73,27.28C304.46,128.94,314.26,125.09,317.19,101.66Z" transform="translate(-78.34 -35.76)"/><path class="cls-87" d="M312.6,39.5s2.18,1.69,2.6,7.59-2.15,12.45-2.15,12.45a23.73,23.73,0,0,0,3.6-10.27C317,43.9,314.33,40.17,312.6,39.5Z" transform="translate(-78.34 -35.76)"/><path class="cls-88" d="M286.17,51.85a51,51,0,0,0,10.58,2.21l6.68.6s-2.22-2.16-7-2.81A48,48,0,0,0,286.17,51.85Z" transform="translate(-78.34 -35.76)"/><path class="cls-89" d="M310.57,102.07s2.41,0,3.36,3a25.24,25.24,0,0,1,1,4.5l.86-3.32s-1.12-4.21-2.28-5.16c-.84-.68-2.27-1.37-3-1.21Z" transform="translate(-78.34 -35.76)"/><path class="cls-90" d="M304.05,99l.41,3.6a13,13,0,0,0,4.89-.57l.35-2.18A26.89,26.89,0,0,0,304.05,99Z" transform="translate(-78.34 -35.76)"/><path class="cls-87" d="M317.48,145.57s17.23,12.58,19.46,16.91,3.15,17.9,6.17,23.77c0,0-2.07-9.61-3.52-17.14s-1.1-7.64-1.9-9.49S324,148.85,317.48,145.57Z" transform="translate(-78.34 -35.76)"/><path class="cls-87" d="M314.4,215.61s-8.31,35.54-7.93,37.94,5.75,7.3,6,8.65c0,0-4.11,5.5-3.92,6.72s7.2,8.92,7,11.3c-.05.69-4.6,8.2-4.6,8.2s5.14-7.38,5.39-8.55-6.29-11-6.48-12c-.5-2.59,3.26-4.5,3.39-6.2s-5.1-5.87-5.14-8.65S314.4,215.61,314.4,215.61Z" transform="translate(-78.34 -35.76)"/><path class="cls-87" d="M316.08,300.34S334,341,340.15,381.61C340.15,381.61,339.13,342,316.08,300.34Z" transform="translate(-78.34 -35.76)"/><path class="cls-75" d="M202.27,137.41s-4.64-1-6.57-5-.67-9.91-.67-9.91a102.45,102.45,0,0,0,5.45,9.35C202.29,134.19,202.78,136.9,202.27,137.41Z" transform="translate(-78.34 -35.76)"/><polygon class="cls-13" points="198.55 145.59 197.94 146.44 197.94 146.44 198.55 145.59"/><polygon class="cls-13" points="198.72 146.71 198.45 147.09 198.72 146.71 198.72 146.71"/><path class="cls-13" d="M285.49,180.42c-.19.59-.38,1.15-.59,1.71Z" transform="translate(-78.34 -35.76)"/><path class="cls-13" d="M270.31,178.76l-.44-.12-.34,6.93.88.05.34-6.94Z" transform="translate(-78.34 -35.76)"/><path class="cls-13" d="M295.16,184.11l-.92,0,1.38,2.7,1,0Zm-.82-4.23-2.17-.1-.34,6.89.88.05.31-6.21,1.15.06c1.07.05,1.64.4,1.6,1.31s-.66,1.31-1.72,1.25l-.81,0,0,.73.94.05c1.41.07,2.45-.55,2.52-1.93S295.74,180,294.34,179.88Z" transform="translate(-78.34 -35.76)"/><polygon class="cls-13" points="184.95 149.89 179.43 149.62 182.44 145.13 182.95 144.36 183.97 146.3 183.45 147.04 182.88 147.83 183.89 147.88 184.95 149.89"/><path class="cls-13" d="M264.25,185.69h0v0l-1.08-2s0,0,0,0h.05c.43,0,2.39-.09,2.47-1.71h0a1.82,1.82,0,0,0-1.4-2h-.08l-4-.2h0l-1.06-2h0l4.71.24a4.42,4.42,0,0,1,2.73,1.06,3.35,3.35,0,0,1,1.06,2.57.24.24,0,0,1,0,.12A4.3,4.3,0,0,1,264.25,185.69Z" transform="translate(-78.34 -35.76)"/><path class="cls-13" d="M302.22,181.31l-.44-.1-.29,5.94.88,0,.29-5.94Zm-2.5-1.16,0,.73,5.09.25,0-.73Z" transform="translate(-78.34 -35.76)"/><path class="cls-13" d="M278.37,179.06l-.51.72-.95,1.32-.61.85-2.38,3.31,0,.53.63,0,.5-.72,1.78-2.48v0l.27-.38,1.87-2.61,0-.52Zm-2.9,6.08-.5.7,3.76.19,0-.73Zm-1-6.24,0,.73,2.94.15.5-.71Z" transform="translate(-78.34 -35.76)"/><path class="cls-13" d="M285.09,179.39l-2.69,6.82.9,0,1.41-3.81.21-.55c.2-.57.39-1.13.58-1.71v0h0l.25-.72Zm1,.05h-.06l-.38,1.09c.16.67.31,1.32.49,2l1,3.94.93,0Z" transform="translate(-78.34 -35.76)"/><path class="cls-91" d="M372.54,135.91l3.22,91.79a6.76,6.76,0,0,0,6.76,6.53H540.65a6.76,6.76,0,0,0,6.76-6.6l2.21-92.87a6.76,6.76,0,0,0-6.8-6.93l-163.57,1.08A6.75,6.75,0,0,0,372.54,135.91Z" transform="translate(-78.34 -35.76)"/><path class="cls-92" d="M540.65,234.48H382.52a7,7,0,0,1-7-6.77l-3.22-91.79a7,7,0,0,1,7-7.26l163.57-1.08a7.07,7.07,0,0,1,5,2.1,7,7,0,0,1,2,5.08l-2.22,92.87A7,7,0,0,1,540.65,234.48Zm2.21-106.4h0l-163.56,1.08a6.51,6.51,0,0,0-6.47,6.74L376,227.69a6.49,6.49,0,0,0,6.51,6.29H540.65a6.55,6.55,0,0,0,6.51-6.36l2.22-92.87a6.52,6.52,0,0,0-6.52-6.67Z" transform="translate(-78.34 -35.76)"/><path class="cls-93" d="M372.77,140.58H549.44l.28-4.84a7.42,7.42,0,0,0-7.46-7.85l-163.5,1.3a6.12,6.12,0,0,0-6.08,6.25Z" transform="translate(-78.34 -35.76)"/><polygon class="cls-94" points="303.32 112.23 303.32 165.35 357.39 165.35 357.39 111.95 303.32 112.23"/><rect class="cls-95" x="409.65" y="115.8" width="23.52" height="23.52"/><rect class="cls-96" x="437.41" y="115.8" width="23.52" height="23.52"/><rect class="cls-97" x="381.44" y="115.8" width="23.52" height="23.52"/><rect class="cls-98" x="400.78" y="153.03" width="60.15" height="5.63"/><rect class="cls-98" x="385.73" y="161.61" width="75.2" height="1.74"/><rect class="cls-98" x="386.44" y="142.32" width="14.39" height="1.74"/><rect class="cls-98" x="414.22" y="142.32" width="14.39" height="1.74"/><rect class="cls-98" x="441.97" y="142.32" width="14.39" height="1.74"/><rect class="cls-98" x="381.44" y="164.44" width="24.19" height="1.74"/><rect class="cls-98" x="385.73" y="167.24" width="75.2" height="1.74"/><rect class="cls-98" x="381.44" y="170.04" width="79.49" height="1.74"/><rect class="cls-98" x="381.44" y="172.84" width="79.49" height="1.74"/><rect class="cls-98" x="385.73" y="184.17" width="75.2" height="1.74"/><rect class="cls-98" x="381.44" y="186.97" width="79.49" height="1.74"/><rect class="cls-98" x="381.44" y="189.77" width="79.49" height="1.74"/><rect class="cls-98" x="381.44" y="175.65" width="76.3" height="1.74"/><rect class="cls-98" x="385.73" y="178.45" width="75.2" height="1.74"/><rect class="cls-98" x="381.44" y="181.25" width="64.41" height="1.74"/><g class="cls-99"><path class="cls-100" d="M396.81,190.46a15.39,15.39,0,1,1,15.38-15.38A15.4,15.4,0,0,1,396.81,190.46Zm0-29.77a14.39,14.39,0,1,0,14.38,14.39A14.41,14.41,0,0,0,396.81,160.69Z" transform="translate(-78.34 -35.76)"/></g><circle class="cls-13" cx="318.47" cy="139.32" r="8.36"/><g class="cls-99"><path class="cls-100" d="M435.73,163.09a15.38,15.38,0,1,1,15.39-15.38A15.4,15.4,0,0,1,435.73,163.09Zm0-29.76a14.38,14.38,0,1,0,14.39,14.38A14.4,14.4,0,0,0,435.73,133.33Z" transform="translate(-78.34 -35.76)"/></g><circle class="cls-13" cx="435.73" cy="147.71" r="7.87" transform="translate(143.75 519.43) rotate(-81.06)"/><g class="cls-99"><polygon class="cls-13" points="300.63 97.62 301.75 95.91 307.83 101.24 306.89 102.54 300.63 97.62"/><polygon class="cls-13" points="307.98 97.62 306.86 95.91 300.78 101.24 301.71 102.54 307.98 97.62"/></g><rect class="cls-13" x="412.38" y="97.07" width="54.44" height="2.73"/><polygon class="cls-101" points="105.01 56.37 105.01 79.99 133.27 80.23 133.65 55.61 105.01 56.37"/><polygon class="cls-102" points="133.65 55.61 135.49 58.71 134.57 80.21 133.27 80.23 133.65 55.61"/><polygon class="cls-13" points="110.06 64.34 112.67 60.55 126.78 72.39 124.61 75.28 110.06 64.34"/><polygon class="cls-13" points="127.14 64.34 124.53 60.55 110.42 72.39 112.58 75.28 127.14 64.34"/><path class="cls-103" d="M249.27,370.18H152.58a7.93,7.93,0,0,1-7.92-7.74l-1.8-79.3a7.91,7.91,0,0,1,7.92-8.1H251.44a7.92,7.92,0,0,1,7.92,8.13l-2.17,79.31A7.92,7.92,0,0,1,249.27,370.18Z" transform="translate(-78.34 -35.76)"/><path class="cls-104" d="M249.27,370.43H152.58a8.22,8.22,0,0,1-8.17-8l-1.8-79.31a8.16,8.16,0,0,1,8.17-8.35H251.44a8.16,8.16,0,0,1,8.17,8.39l-2.17,79.31A8.13,8.13,0,0,1,249.27,370.43Zm-98.49-95.14a7.65,7.65,0,0,0-7.67,7.84l1.8,79.31a7.72,7.72,0,0,0,7.67,7.49h96.69a7.64,7.64,0,0,0,7.67-7.46l2.17-79.3a7.67,7.67,0,0,0-7.67-7.88Z" transform="translate(-78.34 -35.76)"/><rect class="cls-13" x="90.58" y="255.5" width="50.85" height="2.18"/><rect class="cls-13" x="90.58" y="260.8" width="25.42" height="2.18"/><rect class="cls-13" x="90.58" y="265.22" width="25.42" height="2.18"/><rect class="cls-13" x="118.86" y="265.22" width="20.23" height="2.18"/><rect class="cls-13" x="90.58" y="269.64" width="40.99" height="2.18"/><rect class="cls-13" x="90.58" y="274.06" width="14.59" height="2.18"/><rect class="cls-13" x="108.17" y="287.32" width="25.23" height="2.18"/><rect class="cls-13" x="90.58" y="278.48" width="45.73" height="2.18"/><rect class="cls-13" x="90.58" y="282.9" width="35.18" height="2.18"/><rect class="cls-13" x="90.58" y="287.32" width="16.55" height="2.18"/><rect class="cls-13" x="90.58" y="291.74" width="25.42" height="2.18"/><rect class="cls-13" x="90.58" y="296.17" width="7.29" height="2.18"/><rect class="cls-13" x="100.88" y="296.17" width="26.46" height="2.18"/><rect class="cls-13" x="108.17" y="300.46" width="25.23" height="2.18"/><rect class="cls-13" x="90.58" y="300.46" width="16.55" height="2.18"/><rect class="cls-13" x="90.58" y="304.88" width="25.42" height="2.18"/><rect class="cls-13" x="90.58" y="309.3" width="7.29" height="2.18"/><rect class="cls-13" x="100.88" y="309.3" width="26.46" height="2.18"/><path class="cls-105" d="M508.72,108.84a4.47,4.47,0,1,1-4.47-4.47A4.47,4.47,0,0,1,508.72,108.84Z" transform="translate(-78.34 -35.76)"/><path class="cls-106" d="M89.82,212.48a5.57,5.57,0,1,1-5.56-5.56A5.56,5.56,0,0,1,89.82,212.48Z" transform="translate(-78.34 -35.76)"/><circle class="cls-107" cx="439.04" cy="73.08" r="4.47"/><circle class="cls-108" cx="150.86" cy="103.81" r="3.16"/><circle class="cls-109" cx="362.52" cy="243.25" r="3.16"/><circle class="cls-110" cx="34" cy="274.75" r="2.82"/><path class="cls-111" d="M160.49,282.77h-48.8a7.28,7.28,0,0,1-7.27-7l-1.09-32.09a7.28,7.28,0,0,1,7.28-7.53h50.87a7.28,7.28,0,0,1,7.27,7.5l-1,32.1A7.28,7.28,0,0,1,160.49,282.77Z" transform="translate(-78.34 -35.76)"/><path class="cls-112" d="M160.49,283h-48.8a7.5,7.5,0,0,1-7.52-7.28l-1.09-32.09a7.55,7.55,0,0,1,7.53-7.79h50.87a7.53,7.53,0,0,1,7.52,7.76l-1,32.1A7.49,7.49,0,0,1,160.49,283Zm-49.88-46.66a7,7,0,0,0-7,7.27l1.09,32.09a7,7,0,0,0,7,6.8h48.8a7,7,0,0,0,7-6.82l1-32.09a7,7,0,0,0-7-7.25Z" transform="translate(-78.34 -35.76)"/><polygon class="cls-13" points="46.37 211.88 34.34 225.83 46.59 236.23 46.59 230.86 39.5 224.73 46.08 217.28 46.37 211.88"/><polygon class="cls-13" points="67.52 212.51 79.55 226.46 67.3 236.86 67.3 231.49 74.38 225.35 66.5 217.01 67.52 212.51"/><polygon class="cls-13" points="48.99 236.23 59.47 213.14 64.4 213.14 52.52 236.23 48.99 236.23"/><path class="cls-113" d="M496.66,342.94h-61a9.11,9.11,0,0,1-9.11-8.8L425.16,294a9.1,9.1,0,0,1,9.1-9.42h63.63A9.12,9.12,0,0,1,507,294l-1.23,40.15A9.11,9.11,0,0,1,496.66,342.94Z" transform="translate(-78.34 -35.76)"/><path class="cls-112" d="M496.66,343.19h-61a9.32,9.32,0,0,1-9.36-9L424.91,294a9.34,9.34,0,0,1,9.35-9.68h63.63a9.36,9.36,0,0,1,9.36,9.65L506,334.12A9.31,9.31,0,0,1,496.66,343.19Zm-62.4-58.37a8.85,8.85,0,0,0-8.85,9.16l1.35,40.15a8.82,8.82,0,0,0,8.86,8.56h61a8.82,8.82,0,0,0,8.86-8.59L506.75,294a8.86,8.86,0,0,0-8.86-9.13Z" transform="translate(-78.34 -35.76)"/><rect class="cls-98" x="359.05" y="255.28" width="55.91" height="33.21"/><polygon class="cls-13" points="382.05 263.52 382.05 280.24 396.34 271.11 382.05 263.52"/><rect class="cls-98" x="359.05" y="294.6" width="55.91" height="3.04"/><rect class="cls-13" x="359.05" y="294.6" width="14.47" height="3.04"/><path class="cls-114" d="M388.58,286.42l-2.91,8.34C387.28,290.15,389.6,287.16,388.58,286.42Zm-2.91,8.34-2.93,8.35C383.48,302.89,384.05,299.38,385.67,294.76Zm2.91-8.34-2.91,8.34C387.28,290.15,389.6,287.16,388.58,286.42Zm-2.91,8.34-2.93,8.35C383.48,302.89,384.05,299.38,385.67,294.76Zm8.42,7.24,2.84,1.6,3.06-8.35-3.28-.55c.06-.31.11-.62.15-.92a21.39,21.39,0,0,0,.28-4.17l3.43-2.15L399,280.1l-3.29,3.15A9.41,9.41,0,0,0,394,280.8a6,6,0,0,0-.57-.56l2-4.64-5.35-1.74h0l-1.28,4.68a8.74,8.74,0,0,0-3.62.85l-.59-4.42-5.89,4.45,1.36,3.92a22.31,22.31,0,0,0-2.87,4.18l-2.84-1.6-3.06,8.35,3.28.55a22.54,22.54,0,0,0-.43,5.09l-3.43,2.15,1.56,7.36,3.29-3.14a9.13,9.13,0,0,0,2.25,3l-2,4.65,5.26,2.05.81-3,.56-2a9,9,0,0,0,3.63-.85l.58,4.42,5.89-4.46-1.36-3.91a22.31,22.31,0,0,0,2.31-3.21C393.73,302.66,393.91,302.33,394.09,302Zm-8.42-7.24c-1.62,4.62,0,9.37-2.93,8.35s-4-5.6-2.38-10.2,5.3-7.52,8.22-6.49S387.28,290.15,385.67,294.76Zm2.91-8.34-2.91,8.34C387.28,290.15,389.6,287.16,388.58,286.42Zm-2.91,8.34-2.93,8.35C383.48,302.89,384.05,299.38,385.67,294.76Z" transform="translate(-78.34 -35.76)"/><path class="cls-115" d="M396.93,303.6l3.06-8.35-3.13-1.47-.5-.24.33-4.6,3.46-1.69L399,280.1l-7.55-2.45,1.39,3.31,2.63-5.36-5.35-1.74-2.19-.71-5.27-2.06-1,3.6-4.59-2.18L371.21,277l1.78,4.82-5.5,15.27L364.77,307l5.23.57-1.71,3.93,5.28,2.06,7.54,2.45-1.21-2.42-.76-1.45,2.78.91,4.77,1.55,5.89-4.46-3.64-4.29,4.59-2.83Zm-16.57-10.69c1.62-4.61,5.3-7.52,8.22-6.49l-2.91,8.34-2.93,8.35C379.81,302.08,378.74,297.51,380.36,292.91Z" transform="translate(-78.34 -35.76)"/><path class="cls-116" d="M389.38,301.14l3.06-8.35-3.28-.55a23.13,23.13,0,0,0,.44-5.08L393,285l-1.57-7.36-3.29,3.14a9,9,0,0,0-2.25-3l2-4.64-5.27-2.06-1.37,5a8.92,8.92,0,0,0-3.62.84l-.58-4.41L371.21,277l1.35,3.92a22.39,22.39,0,0,0-2.87,4.19l-2.84-1.6-3.05,8.35,3.28.55a22.44,22.44,0,0,0-.44,5.08l-3.43,2.15,1.56,7.36,3.29-3.14a9.17,9.17,0,0,0,2.25,3l-2,4.64,5.27,2.05,1.36-5a8.94,8.94,0,0,0,3.63-.85l.58,4.42,5.89-4.46-1.36-3.91a22.39,22.39,0,0,0,2.87-4.19Zm-14.19-.49c-2.93-1-4-5.6-2.38-10.2s5.3-7.52,8.23-6.49,4,5.59,2.38,10.2S378.12,301.67,375.19,300.65Z" transform="translate(-78.34 -35.76)"/><polygon class="cls-117" points="322.23 251.71 314.69 249.25 311.26 251.4 318.8 253.86 322.23 251.71"/><polygon class="cls-118" points="314.24 274.35 306.69 271.89 305.33 267.97 312.88 270.43 314.24 274.35"/><polygon class="cls-117" points="307.59 242.03 311.72 243.23 313.12 241.89 315.87 242.79 317.14 239.85 309.6 237.39 307.59 242.03"/><path class="cls-117" d="M374.93,308.53l3.95,1.64-.32-2.49A7.08,7.08,0,0,1,374.93,308.53Z" transform="translate(-78.34 -35.76)"/><path class="cls-117" d="M375.54,285.9l6.66,3.52a10.23,10.23,0,0,1,1.71-1.81S382.17,280.27,375.54,285.9Z" transform="translate(-78.34 -35.76)"/><polygon class="cls-119" points="144.45 1.21 150.87 14.06 146.58 16.01 140.58 4.2 144.45 1.21"/><polygon class="cls-120" points="0 300.55 5.94 307.06 8.27 304.37 2.66 298.2 0 300.55"/><polygon class="cls-121" points="301.78 79.61 295.8 83.24 293.4 78.7 299.94 74.88 301.78 79.61"/><polygon class="cls-121" points="331.22 309.33 322.65 315.41 320.25 310.87 328.57 306.01 331.22 309.33"/><polygon class="cls-122" points="319.9 48.54 318.45 14.88 362.52 14.88 360.71 48.45 319.9 48.54"/><polygon class="cls-123" points="318.45 14.88 317.13 16.87 318.45 48.54 319.9 48.54 318.45 14.88"/><polygon class="cls-13" points="333.08 21.6 326.17 20.86 327.12 43.93 333.08 43.34 333.08 40.95 329.63 41.03 329.23 23.25 333.08 23.36 333.08 21.6"/><polygon class="cls-13" points="347.25 21.6 354.16 20.86 353.21 43.93 347.25 43.34 347.25 40.95 350.7 41.03 351.1 23.25 347.25 23.36 347.25 21.6"/><polygon class="cls-124" points="193.14 194.98 194.13 172.03 164.08 172.03 165.32 194.91 193.14 194.98"/><polygon class="cls-125" points="194.13 172.03 195.03 173.39 194.13 194.98 193.14 194.98 194.13 172.03"/><path class="cls-13" d="M260.89,212.41a20,20,0,0,1,3.88.14c.58.27-.16,5.63-.16,5.63l1.32,1.21-1.23,1.19s.07,5.44-.71,5.89-3.42,0-3.42,0v-1.35a7.92,7.92,0,0,0,2.52-.16c.35-.29.32-5,.32-5l.58-.64-.58-.69s.11-3.39,0-4.32c0-.61-2.56-.65-2.56-.65Z" transform="translate(-78.34 -35.76)"/><path class="cls-13" d="M253.34,212.41a19.87,19.87,0,0,0-3.87.14c-.58.27.15,5.63.15,5.63l-1.31,1.21,1.22,1.19s-.06,5.44.71,5.89,3.43,0,3.43,0v-1.35a7.91,7.91,0,0,1-2.52-.16c-.36-.29-.32-5-.32-5l-.59-.64.59-.69s-.11-3.39-.05-4.32c.05-.61,2.56-.65,2.56-.65Z" transform="translate(-78.34 -35.76)"/><path class="cls-92" d="M347.86,87.33,340.5,68.06l19.09,4Zm-6.57-18.59L348,86.32l10.7-13.94Z" transform="translate(-78.34 -35.76)"/><rect class="cls-92" x="398.19" y="355.71" width="10.94" height="0.5" transform="translate(-200.41 435.32) rotate(-53.76)"/><polygon class="cls-92" points="261.58 243.4 254.63 234.76 255.02 234.45 261.97 243.09 261.58 243.4"/><polygon class="cls-92" points="47.25 304.12 33.38 294.06 33.67 293.66 47.54 303.72 47.25 304.12"/><rect class="cls-92" x="110.23" y="334.4" width="17.13" height="0.5" transform="translate(-297.74 190.61) rotate(-52.7)"/><rect class="cls-92" x="98.59" y="184.72" width="0.5" height="10.14" transform="translate(-193.48 153.25) rotate(-62.28)"/><polygon class="cls-92" points="369.71 35.61 369.34 35.28 379.71 23.45 380.08 23.78 369.71 35.61"/><rect class="cls-92" x="248.43" y="99.55" width="0.5" height="10.41" transform="translate(-98.97 85.97) rotate(-26.45)"/><rect class="cls-92" x="171.13" y="261.73" width="15.54" height="0.5" transform="translate(-204.75 140.07) rotate(-39.91)"/></g></g></g></g></svg>