<svg xmlns="http://www.w3.org/2000/svg" viewBox="0 0 1218.22 201"><defs><style>.cls-1{fill:#fff;}</style></defs><g id="Layer_2" data-name="Layer 2"><g id="Layer_1-2" data-name="Layer 1"><polygon class="cls-1" points="492.29 71.42 477.6 94.43 477.49 94.36 492.29 71.42"/><polygon class="cls-1" points="498.29 100.46 491.79 110.54 498.24 100.43 498.29 100.46"/><path class="cls-1" d="M715.05,36.36c-4.15,15.5-8.42,30.34-13,45.22Z"/><path class="cls-1" d="M317.72,12.56l-11.5-2.5V191h23V10.06Z"/><path class="cls-1" d="M971.55,119.91l-23.75,2.55L987.06,191h26.1ZM944.68,11H888.22V191h23V29h30.07c27.91,0,43.27,8.44,43.27,32.2,0,23.42-15.36,34.8-43.27,34.8H920.22v19h24.46c36.68,0,63-17.32,63-53.3C1007.72,24.17,981.36,11,944.68,11Z"/><polygon class="cls-1" points="144.02 201 0 201 72.48 80.19 84.82 59.64 113.92 108.79 101.16 128.63 87.42 150 113.81 150 144.02 201"/><path class="cls-1" d="M169,200.79l-.52.16-.36-.59-30.66-50a.57.57,0,0,1,.47-.87l.69,0,.48,0c11.2-.54,62.12-5.32,62.12-47.47h0s3.58-43-39.07-50.82a10.64,10.64,0,0,0-2-.18H55.79a.05.05,0,0,1,0,0L25.61.08s0-.08,0-.08H148.57c26.14,0,51.84,8.09,72.52,24.08,18.24,14.1,27.22,33.68,31,65.69a27.79,27.79,0,0,1,.17,3C252.17,104.87,248.51,177.28,169,200.79Z"/><path class="cls-1" d="M1151.73,38l-11.51-2.15V191h23V35.89Zm-66.51-27V30h133V11Z"/><path class="cls-1" d="M527.91,10,515.69,29.5,492.75,65,477.92,88l-57.7,89.33V191h16.51l12-19.5,43.12-66.77.37-.57,6.51-10.08,45.46-70.4V10Zm-67.5,162-12.12,19h97.93V172ZM426.22,11V30H503l12.13-19Z"/><path class="cls-1" d="M703.31,10,642.08,191h23.44l31.9-101c1.58-4.93,3.12-9.82,4.63-14.71,4.58-14.88,8.85-29.71,13-45.21.09-.34.18-.69.28-1h0l5.46-19Zm27,0h-1.71l-8.33,29c4.89,17.28,9.85,34,15.3,51L767.1,191h24.39Z"/></g></g></svg>